<svg xmlns="http://www.w3.org/2000/svg" viewBox="0 0 413.03 423.42"><defs><style>.cls-1{isolation:isolate;}.cls-10,.cls-2,.cls-5{fill:#afafaf;}.cls-2{opacity:0.41;}.cls-25,.cls-26,.cls-29,.cls-3,.cls-31,.cls-32,.cls-33,.cls-36,.cls-38,.cls-39,.cls-47{fill:none;stroke-miterlimit:10;}.cls-3,.cls-31{stroke:#fff;}.cls-3{stroke-width:1.95px;stroke-dasharray:3.85 3.85;}.cls-15,.cls-4{fill:#515159;}.cls-4{opacity:0.87;}.cls-10,.cls-13,.cls-14,.cls-21,.cls-28,.cls-4,.cls-42,.cls-46{mix-blend-mode:multiply;}.cls-6{fill:#fefefe;}.cls-7{fill:#8b8b8c;}.cls-8{fill:#5a5a63;}.cls-9{fill:#edb62b;}.cls-11,.cls-42{fill:#2f2f35;}.cls-12,.cls-13,.cls-28{fill:#a87d1d;}.cls-14{fill:#895436;}.cls-16,.cls-37,.cls-43,.cls-45{fill:#fff;}.cls-17{fill:#ff7e6e;}.cls-18{fill:#e8e8e8;}.cls-19{fill:#d3d3d3;}.cls-20,.cls-35{fill:#fff6e7;}.cls-20{opacity:0.52;}.cls-20,.cls-37,.cls-45{mix-blend-mode:overlay;}.cls-21,.cls-22{fill:#4c2a29;}.cls-21{opacity:0.28;}.cls-23{fill:#c64f4f;}.cls-24{fill:#803d3d;}.cls-25,.cls-26,.cls-32{stroke:#2f2f35;}.cls-25,.cls-26,.cls-32,.cls-33,.cls-39{stroke-linecap:round;}.cls-25,.cls-33{stroke-width:1.34px;}.cls-26{stroke-width:2.67px;}.cls-27{fill:#8c4242;}.cls-28,.cls-46{opacity:0.67;}.cls-29{stroke:#7b3c38;stroke-width:1.14px;}.cls-30{fill:#a5a5a5;}.cls-31{stroke-width:1.11px;}.cls-31,.cls-38{opacity:0.57;}.cls-32{stroke-width:0.82px;}.cls-33{stroke:#4c2a29;}.cls-34{fill:#ececec;}.cls-36,.cls-38{stroke:#0f1201;}.cls-37{opacity:0.54;}.cls-39{stroke:#fefefe;stroke-width:2.24px;}.cls-40{fill:#666;}.cls-41{fill:#9e9e9e;}.cls-42{opacity:0.68;}.cls-43{opacity:0.42;}.cls-44{fill:#ccc;}.cls-45{opacity:0.75;}.cls-47{stroke:#666;stroke-width:2px;}</style></defs><title>hero-illustration</title><g class="cls-1"><g id="Layer_2" data-name="Layer 2"><g id="OBJECTS"><path class="cls-2" d="M152.77,296c-4.07,0-8.14-.18-12.22-.51-44.67-3.67-96.42-25-118.66-63.83-19.45-34-27.08-77.92-18.23-115.78C12,80.27,37.79,51.44,73.92,40.49c40.64-12.31,85.55,2.65,125.54-14.17,58.2-24.47,131.35-5,172.13,41.53,36.17,41.29,44.92,107.86,33.57,159.44-5.74,26.07-20.83,51.18-44.86,64.3-19.11,10.45-42.21,12.51-64.07,9.78-17.58-2.18-33.76-7.92-50.66-12.63C232,285,220.9,286.92,207,289.67,189.18,293.2,171,296.07,152.77,296Z"/><path class="cls-3" d="M162.74,271.08q-4.94,0-9.88-.42c-36.15-3-78-20.22-96-51.65-15.74-27.47-21.92-63-14.75-93.68,6.73-28.8,27.61-52.14,56.85-61,32.88-10,69.22,2.14,101.58-11.47,47.09-19.8,106.28-4.08,139.29,33.61,29.26,33.4,36.34,87.27,27.16,129-4.64,21.1-16.86,41.41-36.3,52-15.46,8.45-34.16,10.12-51.84,7.92-14.23-1.77-27.32-6.41-41-10.23-11-3.06-20-1.47-31.18.76C192.2,268.82,177.52,271.14,162.74,271.08Z"/><ellipse class="cls-4" cx="373.91" cy="409.06" rx="17.59" ry="1.34"/><path class="cls-5" d="M376.14,358.48s-15.06-10.23-5.38-25.11,7.25-20,3.87-24.23c8.22,9.36,6.42,20,1.51,26.78S370.46,351.89,376.14,358.48Z"/><polygon class="cls-6" points="388.43 371.18 359.39 371.18 362.22 407.94 385.6 407.94 388.43 371.18"/><rect class="cls-7" x="356.32" y="369.3" width="35.18" height="4.31"/><path class="cls-8" d="M384.59,365.42H363.23a3.84,3.84,0,0,0-3.84,3.84v0h29v0A3.84,3.84,0,0,0,384.59,365.42Z"/><polygon class="cls-9" points="386.82 392.13 387.5 383.22 360.32 383.22 361 392.13 386.82 392.13"/><path class="cls-10" d="M388.43,369.3v0a3.84,3.84,0,0,0-3.84-3.84H374a3.84,3.84,0,0,1,3.84,3.84v0h3.07v4.31h-3.26L375,408H385.6l2.65-34.34h3.25V369.3Z"/><path class="cls-11" d="M232.5,140.65s6.09-19.09-2.8-24.63c-5.66-2.91-8.74.71-8.74.71s-2.66-13.5-21-9c-11.86,2.89-15.61-3.23-15.61-3.23s-.11,16.92,8.06,22c5.92,5.08,3.65,18.79,3.65,18.79Z"/><path class="cls-4" d="M286.46,390.1s33,1,42.18,9.49c9.68,8.93,19.84,22.89-21.83,22.62s-78.6-11.74-113.55-8.1-63.62,9.91-72,8.52,51.19-29.92,51.19-29.92L283,396.77Z"/><path class="cls-12" d="M255.62,315.93l-41.57-4.18-41.57,4.18S170,335.57,162,346.05l52.07,18.7,52.07-18.7C258.09,335.57,255.62,315.93,255.62,315.93Z"/><path class="cls-13" d="M212.41,364.16l1.64.59,1.64-.59c9.58-22,7.29-46.77,6.72-51.57l-8.36-.84-10.7,1.08C203.14,318.11,202.78,342.26,212.41,364.16Z"/><path class="cls-14" d="M172.24,317.53s43.74,19.29,86,10.91a98.13,98.13,0,0,1-2.61-12.51l-41.57-4.18-33.4,3.36-8.41,2.42Z"/><path class="cls-15" d="M192.43,126.41c5.92,5.08,3.65,18.79,3.65,18.79l7.74-1c8-7.07,16.92-16,15.62-19.4-2.29-5.91-8.88-11.81-21-12.49s-14-7.88-14-7.88S184.26,121.38,192.43,126.41Z"/><path class="cls-16" d="M212.54,174.32l-34.37,12.52-5.69,129.09s12.15,5.69,41.57,5.69V176.32Z"/><path class="cls-16" d="M215.56,174.32l34.37,12.52,5.69,129.09s-12.15,5.69-41.57,5.69V176.32Z"/><path class="cls-17" d="M178.17,186.84l-.16.06a37.24,37.24,0,0,0-22,21.19l-36.89,89.29,31.37,3.74L177,236Z"/><path class="cls-17" d="M249.93,186.84l.16.06a37.27,37.27,0,0,1,22,21.19L309,297.38l-31.37,3.74L251.09,236Z"/><path class="cls-18" d="M286.44,242.77l-14.32-34.68a37.27,37.27,0,0,0-22-21.19l-.16-.06,1.16,49.2,7.52,18.43C268.65,246.06,278.73,243.33,286.44,242.77Z"/><path class="cls-18" d="M141.65,242.77,156,208.09a37.24,37.24,0,0,1,22-21.19l.16-.06L177,236l-7.52,18.43C159.45,246.06,149.37,243.33,141.65,242.77Z"/><path class="cls-19" d="M252.17,237.74a38.93,38.93,0,0,1-2.24-3.75l1.16,2s-13.08,72.57-48,85.29h0c3.36.18,7,.29,11,.29,29.42,0,41.57-5.69,41.57-5.69Z"/><path class="cls-20" d="M162,228.23c8.86-24.87,9.36-24.68,28.72-29.24s15.56-22.38,15.56-22.38l-18.06,6.58-2.79,1-7.24,2.63-.16.06a37.24,37.24,0,0,0-22,21.19l-35.36,85.59C135.55,282.69,154.43,249.41,162,228.23Z"/><path class="cls-21" d="M266.12,228.23c-8.87-24.87-9.36-24.68-28.72-29.24s-15.56-22.38-15.56-22.38l18,6.58,2.8,1,7.24,2.63.16.06a37.27,37.27,0,0,1,22,21.19l35.36,85.59C292.55,282.69,273.67,249.41,266.12,228.23Z"/><path class="cls-17" d="M214.14,190.24H214a9.2,9.2,0,0,1-9.2-9.2v-22h18.58v22A9.2,9.2,0,0,1,214.14,190.24Z"/><path class="cls-22" d="M223.19,176h.15V159.08h-8.67l-9.91,3.58S208.44,176,223.19,176Z"/><path class="cls-23" d="M235.66,145.88a6,6,0,1,1-6-6A6,6,0,0,1,235.66,145.88Z"/><path class="cls-24" d="M230.86,151.73a76.51,76.51,0,0,0,1.64-11.08,5.89,5.89,0,0,0-2.8-.73,6,6,0,1,0,0,11.93A5.57,5.57,0,0,0,230.86,151.73Z"/><path class="cls-23" d="M192.43,145.88a6,6,0,1,0,6-6A6,6,0,0,0,192.43,145.88Z"/><path class="cls-24" d="M197.24,151.73a78,78,0,0,1-1.65-11.08,6,6,0,1,1,2.81,11.2A5.5,5.5,0,0,1,197.24,151.73Z"/><path class="cls-17" d="M224.55,125h-21l-5.2,11.35.87,11.24c.47,6,4.35,16.36,9.8,18.9a10.67,10.67,0,0,0,10.06,0c5.45-2.54,9.33-12.9,9.79-18.9l.88-11.24Z"/><path class="cls-25" d="M219.44,139.27a16.23,16.23,0,0,0,7.51,0"/><path class="cls-26" d="M218.3,132.81s5.14-.85,8.24.93"/><path class="cls-25" d="M208.66,139.27a16.23,16.23,0,0,1-7.51,0"/><path class="cls-26" d="M209.8,132.81s-5.15-.85-8.24.93"/><path class="cls-20" d="M205.68,149.07c-.69-11.36-2.13-24-2.13-24l-5.2,11.35.28,3.57-.23,0a6,6,0,1,0,0,11.93,6.17,6.17,0,0,0,1.5-.21c1.41,5.8,4.75,12.84,9.12,14.87a12,12,0,0,0,5,1.26A30.63,30.63,0,0,1,205.68,149.07Z"/><path class="cls-27" d="M249.93,366.42l-118.77-36a29,29,0,0,0-36.53,20.44l-.15.6a29,29,0,0,0,23.08,35.95c43.91,7.67,123.51,20.73,165.4,22.32l17.65,11.77a6.9,6.9,0,0,0,8.55-.7l.09-.09a6.9,6.9,0,0,0,.32-9.75L306.81,408a25.57,25.57,0,0,0-14.58-17.08c-12.12-5.13-13.26-17.66-16.11-24.49S255.05,356.17,249.93,366.42Z"/><path class="cls-9" d="M94.63,350.83a29,29,0,0,1,36.53-20.44l40.27,12.22c-6.06,7.57-14.07,22.93-14.31,51.44-14.7-2.39-28.31-4.71-39.56-6.67a29,29,0,0,1-23.08-35.95Z"/><path class="cls-28" d="M132.1,375.88a29.71,29.71,0,0,1-3.21,13.46l-11.33-2a29,29,0,0,1-23.08-35.95l.15-.6a30.9,30.9,0,0,1,1.42-4.13,30.38,30.38,0,0,1,6.22-.65A29.83,29.83,0,0,1,132.1,375.88Z"/><path class="cls-29" d="M255.62,382.94s-1.71,9.95-18.22,6.4"/><path class="cls-21" d="M266.12,378.38s-25.31-1.14-78.84-10.69c-43.37-7.73-56.09-29.93-59.36-38.08a29.31,29.31,0,0,1,3.24.78l118.77,36c5.12-10.25,23.34-6.83,26.19,0s4,19.36,16.11,24.49A25.57,25.57,0,0,1,306.81,408s-12.46-8-20.35-9.68S266.12,378.38,266.12,378.38Z"/><path class="cls-11" d="M271.6,409.06s21.81,20.87,40.4,12.28a5.42,5.42,0,0,0,2-8.12c-15.66-21.27-35.41-44.44-42.93-53.15a7.39,7.39,0,0,0-7.64-2.26L242.05,364Z"/><polygon class="cls-30" points="242.05 364.03 221.54 357.81 237.08 405.63 271.6 409.06 242.05 364.03"/><path class="cls-17" d="M178.17,366.42l118.77-36a29,29,0,0,1,36.52,20.44l.16.6a29,29,0,0,1-23.08,35.95c-43.92,7.67-123.51,20.73-165.4,22.32l-17.66,11.77a6.89,6.89,0,0,1-8.54-.7l-.09-.09a6.9,6.9,0,0,1-.32-9.75l2.76-2.94a25.58,25.58,0,0,1,14.57-17.08c12.13-5.13,13.27-17.66,16.12-24.49S173.05,356.17,178.17,366.42Z"/><path class="cls-9" d="M333.46,350.83a29,29,0,0,0-36.52-20.44l-40.28,12.22c6.07,7.57,14.07,22.93,14.31,51.44,14.71-2.39,28.31-4.71,39.57-6.67a29,29,0,0,0,23.08-35.95Z"/><path class="cls-28" d="M296,375.88a29.71,29.71,0,0,0,3.21,13.46l11.33-2a29,29,0,0,0,23.08-35.95l-.16-.6a29.52,29.52,0,0,0-1.41-4.13,30.38,30.38,0,0,0-6.22-.65A29.82,29.82,0,0,0,296,375.88Z"/><path class="cls-21" d="M162,378.38s25.3-1.14,78.83-10.69c43.37-7.73,56.1-29.93,59.36-38.08a29.15,29.15,0,0,0-3.23.78l-118.77,36c-5.12-10.25-23.35-6.83-26.19,0s-4,19.36-16.12,24.49A25.58,25.58,0,0,0,121.29,408s12.46-8,20.34-9.68S162,378.38,162,378.38Z"/><path class="cls-31" d="M135.86,390.91l-17.8-3.3a29.32,29.32,0,0,1-24.28-33.89l.11-.63a29.32,29.32,0,0,1,37.76-23l33.61,10.65"/><path class="cls-16" d="M207.94,148.88a.78.78,0,0,0-.62,1.25,8,8,0,0,0,13.48,0,.78.78,0,0,0-.63-1.25Z"/><path class="cls-32" d="M215.81,139v6.18a4.12,4.12,0,0,0-3.4,0"/><rect class="cls-17" x="219.44" y="116.73" width="1.52" height="9.67"/><path class="cls-17" d="M309,297.38l.06.18a21,21,0,0,1-10,25.69L235.66,356.5l-.31-.81a31.19,31.19,0,0,1,13.73-38.41l28.56-16.16Z"/><path class="cls-21" d="M295.62,317.75a13.76,13.76,0,0,0,1.61,6.48l1.86-1a21,21,0,0,0,11.2-19.37c-.26,0-.51,0-.77,0A13.9,13.9,0,0,0,295.62,317.75Z"/><line class="cls-33" x1="277.64" y1="301.12" x2="295.62" y2="290.93"/><path class="cls-17" d="M119.27,297.38l-.06.18a21,21,0,0,0,10,25.69l63.42,33.25.31-.81a31.18,31.18,0,0,0-13.73-38.41l-28.56-16.16Z"/><path class="cls-21" d="M132.66,317.75a13.87,13.87,0,0,1-1.6,6.48l-1.86-1A21,21,0,0,1,118,303.88c.26,0,.51,0,.77,0A13.9,13.9,0,0,1,132.66,317.75Z"/><line class="cls-33" x1="150.64" y1="301.12" x2="132.66" y2="290.93"/><path class="cls-33" d="M185.58,352.81s3.2-17.57-7.22-23.2"/><path class="cls-33" d="M242.52,352.81s-3.2-17.57,7.22-23.2"/><path class="cls-11" d="M156.5,409.06s-21.81,20.87-40.4,12.28a5.41,5.41,0,0,1-2-8.12c15.66-21.27,35.4-44.44,42.93-53.15a7.39,7.39,0,0,1,7.64-2.26L186,364Z"/><polygon class="cls-34" points="186.04 364.03 206.56 357.81 191.02 405.63 156.5 409.06 186.04 364.03"/><path class="cls-21" d="M177.51,377c6.09-.65,14-1.6,23.77-3l5.28-16.25L186,364Z"/><path class="cls-35" d="M163,394.54l-11.9,18.14a3.52,3.52,0,0,1-3.41,1.55h-.08a3.51,3.51,0,0,1-2.43-5.44l12.17-18a3.37,3.37,0,0,1,3.54-1.39l.07,0A3.35,3.35,0,0,1,163,394.54Z"/><polygon class="cls-5" points="212.41 289.71 139.58 289.71 157.54 353.67 212.41 353.67 267.29 353.67 285.25 289.71 212.41 289.71"/><rect class="cls-7" x="157.54" y="353.67" width="109.75" height="9.32"/><ellipse class="cls-8" cx="212.54" cy="326.73" rx="17.81" ry="9.12"/><rect class="cls-8" x="139.58" y="285.46" width="145.66" height="4.24"/><rect class="cls-8" x="163.62" y="356.34" width="10.99" height="3.75"/><rect class="cls-8" x="179.48" y="356.34" width="10.99" height="3.75"/><line class="cls-36" x1="267.29" y1="358.33" x2="200.49" y2="358.33"/><path class="cls-37" d="M139.58,289.71l18,64h39.09c23.21-26.91,37.31-64,37.31-64l-.05-4.25H139.58Z"/><line class="cls-38" x1="139.58" y1="289.71" x2="285.25" y2="289.71"/><ellipse class="cls-4" cx="63.91" cy="409.06" rx="26.41" ry="1.34"/><path class="cls-8" d="M67.77,395.91,69.51,394l-.87,1,.87-.94c-.21-.2-21.05-21.33,4.12-116.56l-2.47-.65C45.45,374,66.85,395.06,67.77,395.91Z"/><path class="cls-8" d="M60,279.11c9.54,8.67,7.86,18.91,7.86,18.91S58.32,294,56.11,281.26A2.35,2.35,0,0,1,60,279.11Z"/><path class="cls-8" d="M83.87,285.23c-12.53,3-16,12.79-16,12.79s10.34,1,18.39-9A2.35,2.35,0,0,0,83.87,285.23Z"/><path class="cls-8" d="M53.48,304c10.35,7.67,9.72,18,9.72,18s-9.91-3.09-13.39-15.5A2.35,2.35,0,0,1,53.48,304Z"/><path class="cls-8" d="M77.83,307.7C65.67,312,63.2,322,63.2,322s10.38,0,17.38-10.84A2.35,2.35,0,0,0,77.83,307.7Z"/><path class="cls-8" d="M49.33,325.85c10.9,6.88,11,17.26,11,17.26s-10.11-2.35-14.5-14.47A2.34,2.34,0,0,1,49.33,325.85Z"/><path class="cls-8" d="M73.89,327.73c-11.81,5.14-13.52,15.38-13.52,15.38S70.72,342.32,76.9,331A2.35,2.35,0,0,0,73.89,327.73Z"/><path class="cls-8" d="M80.44,260c.21,12.88-8.4,18.68-8.4,18.68s-3.57-9.75,4.16-20A2.35,2.35,0,0,1,80.44,260Z"/><rect class="cls-9" x="49.07" y="353.69" width="27.69" height="54.78"/><rect class="cls-28" x="65.69" y="353.69" width="11.06" height="54.78"/><path class="cls-12" d="M88.91,92.44,79,94.92a2.72,2.72,0,0,1-3.27-2l-1-3.86,15.2-3.78,1,3.86A2.7,2.7,0,0,1,88.91,92.44Z"/><rect class="cls-12" x="28" y="27.82" width="94.26" height="64.39" rx="2.79" transform="translate(-12.26 19.91) rotate(-13.97)"/><polygon class="cls-9" points="123.38 70.69 120.98 77.59 44.62 96.58 37.84 91.97 23.78 35.42 109.32 14.14 123.38 70.69"/><rect class="cls-16" x="30.17" y="29.37" width="42.95" height="58.27" transform="translate(-12.59 14.19) rotate(-13.97)"/><rect class="cls-5" x="28.36" y="34.12" width="35.29" height="2.04" transform="translate(-7.12 12.14) rotate(-13.97)"/><rect class="cls-5" x="29.93" y="40.45" width="35.29" height="2.04" transform="translate(-8.6 12.71) rotate(-13.97)"/><rect class="cls-5" x="31.51" y="46.77" width="35.29" height="2.04" transform="translate(-10.08 13.27) rotate(-13.97)"/><rect class="cls-5" x="33.08" y="53.1" width="35.29" height="2.04" transform="translate(-11.56 13.84) rotate(-13.97)"/><rect class="cls-5" x="34.65" y="59.43" width="35.29" height="2.04" transform="translate(-13.04 14.41) rotate(-13.97)"/><rect class="cls-5" x="36.23" y="65.76" width="35.29" height="2.04" transform="translate(-14.52 14.98) rotate(-13.97)"/><rect class="cls-5" x="37.8" y="72.08" width="35.29" height="2.04" transform="translate(-16 15.54) rotate(-13.97)"/><rect class="cls-5" x="39.37" y="78.41" width="35.29" height="2.04" transform="translate(-17.48 16.11) rotate(-13.97)"/><rect class="cls-16" x="74.04" y="18.46" width="42.95" height="58.27" transform="translate(-8.66 24.46) rotate(-13.97)"/><rect class="cls-5" x="71.91" y="23.29" width="35.29" height="2.04" transform="translate(-3.22 22.33) rotate(-13.97)"/><rect class="cls-5" x="73.48" y="29.62" width="35.29" height="2.04" transform="translate(-4.7 22.9) rotate(-13.97)"/><rect class="cls-5" x="75.06" y="35.94" width="35.29" height="2.04" transform="translate(-6.18 23.47) rotate(-13.97)"/><rect class="cls-5" x="76.63" y="42.27" width="35.29" height="2.04" transform="translate(-7.66 24.03) rotate(-13.97)"/><rect class="cls-5" x="78.21" y="48.6" width="35.29" height="2.04" transform="translate(-9.14 24.6) rotate(-13.97)"/><rect class="cls-5" x="79.78" y="54.92" width="35.29" height="2.04" transform="translate(-10.62 25.17) rotate(-13.97)"/><rect class="cls-5" x="81.35" y="61.25" width="35.29" height="2.04" transform="translate(-12.1 25.73) rotate(-13.97)"/><rect class="cls-5" x="82.93" y="67.58" width="35.29" height="2.04" transform="translate(-13.58 26.3) rotate(-13.97)"/><path class="cls-9" d="M86.3,89.13l-6.59,1.64a2.7,2.7,0,0,1-3.27-2l-.6-2.42,11.83-3,.6,2.43A2.69,2.69,0,0,1,86.3,89.13Z"/><path class="cls-9" d="M232.66,7.82A32.43,32.43,0,0,0,220.47.87l-.2-.06A23.79,23.79,0,0,0,208,.81l-.2.06a32.43,32.43,0,0,0-12.19,7C185.39,17.5,187,35.07,197,44.34c2.78,2.6,4,5.95,4.85,9.65.26,1.12,1.73,12.74,1.22,12.74H225.2c-.52,0,1-11.62,1.21-12.74.86-3.7,2.08-7.05,4.86-9.65C241.18,35.07,242.84,17.5,232.66,7.82Z"/><path class="cls-20" d="M210.13,54c-.86-3.7-2.08-7.05-4.86-9.65-9.91-9.27-11.57-26.84-1.39-36.52A32.47,32.47,0,0,1,216.08.87l.19-.06c.66-.18,1.33-.31,2-.43A23.78,23.78,0,0,0,208,.81l-.2.06a32.43,32.43,0,0,0-12.19,7C185.39,17.5,187,35.07,197,44.34c2.78,2.6,4,5.95,4.85,9.65.26,1.12,1.73,12.74,1.22,12.74h8.31C211.86,66.73,210.38,55.11,210.13,54Z"/><path class="cls-39" d="M214.11,66.73V39.62l4.77-2.75a2,2,0,0,0-.49-3.74l-8.69-2.29a1.62,1.62,0,0,1-.25-3.05l4.66-2.1v-9.2"/><path class="cls-11" d="M227.4,70.46a1.49,1.49,0,0,1-1.49,1.5H201.54a1.5,1.5,0,0,1-1.5-1.5h0a1.5,1.5,0,0,1,1.5-1.49h24.37a1.49,1.49,0,0,1,1.49,1.49Z"/><path class="cls-11" d="M227.4,74.94a1.48,1.48,0,0,1-1.49,1.49H201.54a1.49,1.49,0,0,1-1.5-1.49h0a1.5,1.5,0,0,1,1.5-1.49h24.37a1.49,1.49,0,0,1,1.49,1.49Z"/><path class="cls-11" d="M227.4,79.42a1.49,1.49,0,0,1-1.49,1.49H201.54a1.5,1.5,0,0,1-1.5-1.49h0a1.49,1.49,0,0,1,1.5-1.49h24.37a1.48,1.48,0,0,1,1.49,1.49Z"/><path class="cls-11" d="M213.72,91.36a8.71,8.71,0,0,0,8.71-8.71H205A8.71,8.71,0,0,0,213.72,91.36Z"/><path class="cls-40" d="M316.86,97.08v-7h-3.1a21.16,21.16,0,0,0-3.89-9l2.46-2.46-5-5-2.55,2.55a21.1,21.1,0,0,0-8.91-3.44V69.11h-7v3.8a21.11,21.11,0,0,0-8.49,3.68l-2.48-2.48-5,5,2.51,2.52a21.2,21.2,0,0,0-3.59,8.94h-3.48v7H272a21,21,0,0,0,3.71,8.7L272.94,109l5,5,2.77-2.77a21.29,21.29,0,0,0,8.68,3.55v3.78h7v-3.78a21.18,21.18,0,0,0,8.66-3.53l2.32,2.31,5-4.95L310,106.26a21,21,0,0,0,3.8-9.18Zm-24,8.62a11.93,11.93,0,1,1,11.92-11.92A11.92,11.92,0,0,1,292.86,105.7Z"/><path class="cls-41" d="M344.8,123.66v-4H343a12.21,12.21,0,0,0-2.25-5.18l1.42-1.42-2.86-2.86-1.47,1.47a12.08,12.08,0,0,0-5.14-2v-2.11h-4v2.19a12.12,12.12,0,0,0-4.9,2.12l-1.43-1.43-2.86,2.86,1.45,1.45a12.29,12.29,0,0,0-2.08,5.16h-2v4h2.05a12.14,12.14,0,0,0,2.14,5l-1.58,1.58,2.86,2.86,1.6-1.6a12.21,12.21,0,0,0,5,2.05V136h4v-2.18a12.2,12.2,0,0,0,5-2l1.33,1.34,2.86-2.86L340.86,129a12.23,12.23,0,0,0,2.19-5.3Zm-13.84,5a6.88,6.88,0,1,1,6.88-6.87A6.88,6.88,0,0,1,331,128.63Z"/><path class="cls-7" d="M408.5,71.3V56.91h-6.36a43.16,43.16,0,0,0-8-18.45l5.05-5.05L389,23.23l-5.23,5.24a43.39,43.39,0,0,0-18.3-7.08V13.87H351.1v7.8a43.36,43.36,0,0,0-17.45,7.55l-5.09-5.09L318.38,34.3l5.16,5.16a43.33,43.33,0,0,0-7.38,18.37H309v14.4h7.31a43.44,43.44,0,0,0,7.62,17.87l-5.62,5.62L328.5,105.9l5.69-5.69A43.29,43.29,0,0,0,352,107.49v7.77h14.39v-7.77a43.36,43.36,0,0,0,17.78-7.24L389,105l10.18-10.18-4.68-4.68a43.21,43.21,0,0,0,7.81-18.85ZM359.22,89a24.49,24.49,0,1,1,24.49-24.49A24.49,24.49,0,0,1,359.22,89Z"/><circle class="cls-40" cx="358.76" cy="64.57" r="14.37"/><path class="cls-8" d="M78.91,138.06C48,139.93,24,158.43,25.31,179.38s27.33,36.41,58.2,34.54h.07A4.89,4.89,0,0,0,88,207.85a19.26,19.26,0,0,1,16.92-24,19.24,19.24,0,0,1,17.61,8.26,4.91,4.91,0,0,0,7.91.31c4.64-6,7.1-12.78,6.67-19.86C135.83,151.65,109.78,136.19,78.91,138.06Z"/><path class="cls-7" d="M78.7,134.67C47.83,136.54,23.83,155,25.11,176S52.43,212.4,83.3,210.53h.07a4.89,4.89,0,0,0,4.41-6.08,19.27,19.27,0,0,1,34.54-15.69,4.9,4.9,0,0,0,7.9.31c4.64-6,7.11-12.78,6.68-19.86C135.63,148.26,109.57,132.8,78.7,134.67Z"/><path class="cls-9" d="M67.8,194.06a6.75,6.75,0,1,1-7.15-6.33A6.75,6.75,0,0,1,67.8,194.06Z"/><path class="cls-9" d="M49.41,181.28A6.75,6.75,0,1,1,42.26,175,6.76,6.76,0,0,1,49.41,181.28Z"/><path class="cls-9" d="M54.81,158.93a6.75,6.75,0,1,1-7.14-6.33A6.74,6.74,0,0,1,54.81,158.93Z"/><path class="cls-9" d="M77.61,146.86a6.75,6.75,0,1,1-7.15-6.33A6.75,6.75,0,0,1,77.61,146.86Z"/><path class="cls-9" d="M103.28,147.19a6.75,6.75,0,1,1-7.15-6.33A6.75,6.75,0,0,1,103.28,147.19Z"/><path class="cls-9" d="M124.94,159.4a6.75,6.75,0,1,1-7.14-6.33A6.73,6.73,0,0,1,124.94,159.4Z"/><path class="cls-42" d="M108.75,138.67,102.39,152a2,2,0,0,0-2,1.25l0,.05a2,2,0,0,0,1.12,2.65l.59.24c-.11,0-.72-.11-2,1.75h0l-.24.36,0,0-.24.38,0,.08-.23.39-.07.13-.23.4a1.62,1.62,0,0,1-.1.18c-.07.13-.15.27-.22.42l-.12.22c-.07.15-.15.29-.22.44l-.14.28c-.07.15-.15.3-.22.46s-.11.22-.16.33l-.23.48c-.06.13-.12.26-.17.39s-.15.33-.23.5l-.2.45c-.08.17-.15.34-.22.51s-.15.35-.23.53-.15.35-.22.53-.16.4-.25.59-.14.36-.22.55l-.27.68c-.07.19-.14.37-.22.56s-.2.53-.31.8-.13.34-.2.52-.25.66-.37,1c-.06.15-.11.28-.16.43-.19.49-.37,1-.56,1.53-.51,1.42-1.11,3.09-1.76,4.94-.08.21-.15.42-.23.64l-.3.86-.26.72-.41,1.17c-.06.17-.12.34-.19.52-.13.39-.27.79-.41,1.19-.07.2-.14.4-.22.6-.13.38-.26.76-.4,1.14s-.16.47-.25.71c-.15.45-.31.9-.47,1.35l-.18.51c-.16.46-.32.93-.49,1.4l-.21.6c-.15.44-.3.89-.46,1.33l-.24.68c-.16.47-.33.95-.49,1.43-.07.21-.15.41-.22.62-.16.47-.33.94-.49,1.42-.08.24-.17.48-.25.71l-.45,1.29c-.1.31-.21.61-.31.92l-.39,1.12L84.34,199l-.42,1.19-.21.63h0c-1.12,3.26-2.25,6.56-3.37,9.84,1,0,2-.07,3-.13h.07a4.89,4.89,0,0,0,4.41-6.08,19.29,19.29,0,0,1,13.31-23.26l2.38-5.17c7.16-15.69,5.38-17.09,5.15-17.2l.6.24a2,2,0,0,0,2.65-1.12l0,0a2,2,0,0,0-.93-2.55l4.76-13.69A59.16,59.16,0,0,0,108.75,138.67Zm-6.63,17.5h0l.17.07Z"/><path class="cls-43" d="M53.65,157.9a2.83,2.83,0,1,1-3-2.65A2.82,2.82,0,0,1,53.65,157.9Z"/><path class="cls-43" d="M76.45,146.07a2.82,2.82,0,1,1-3-2.65A2.81,2.81,0,0,1,76.45,146.07Z"/><path class="cls-43" d="M100.6,145.46a2.83,2.83,0,1,1-3-2.65A2.82,2.82,0,0,1,100.6,145.46Z"/><path class="cls-43" d="M46.56,179.29a2.82,2.82,0,1,1-3-2.65A2.83,2.83,0,0,1,46.56,179.29Z"/><path class="cls-43" d="M66.57,192.1a2.82,2.82,0,1,1-3-2.65A2.83,2.83,0,0,1,66.57,192.1Z"/><path class="cls-9" d="M133.43,134.65s9.21-5,9.8-12.81a20.24,20.24,0,0,0-2-8.37l-1.26,4.74s-.69-7.45-6-11-4-2.59-4-2.59,4.46,5.93-.49,15.75,1.29,13.22,1.29,13.22Z"/><path class="cls-12" d="M132.86,131.46s-1.67-8.54,2.14-13.13c-4.95,6.28-6,11.32-4.73,15.39Z"/><path class="cls-16" d="M128.41,133.15a3.5,3.5,0,0,1,4.45-1.69l0,0h0a3.49,3.49,0,0,1,2,4.31l-6,18.61-4.56-1.86-4.56-1.85Z"/><path class="cls-44" d="M119,154.85l7.72,3.15a2,2,0,0,0,2.65-1.12v0a2,2,0,0,0-1.11-2.65L120.59,151a2,2,0,0,0-2.65,1.12l0,0A2,2,0,0,0,119,154.85Z"/><path class="cls-11" d="M119.66,155.11l3.24,1.31,3.24,1.32s2.45.58-5.14,17.21c-5.64,12.36-20.16,43.35-28.52,59.91a1.41,1.41,0,0,1-2.61-1.06c5.59-17.69,16.85-50,21.44-62.79C117.49,153.81,119.66,155.11,119.66,155.11Z"/><path class="cls-16" d="M102.38,214.62c-3.61,7.54-7.1,14.7-9.9,20.24a1.41,1.41,0,0,1-2.61-1.06c1.87-5.92,4.38-13.48,7.06-21.4Z"/><path class="cls-45" d="M101.24,199.76h0c11.9-14.73,16.38-42.79,16.4-42.91-1.32,1.92-3.36,5.91-6.33,14.16C109.07,177.25,105.23,188.17,101.24,199.76Z"/><polygon class="cls-41" points="331.63 165.22 333.74 169.49 338.46 170.17 335.05 173.5 335.85 178.19 331.63 175.98 327.42 178.19 328.22 173.5 324.81 170.17 329.53 169.49 331.63 165.22"/><polygon class="cls-40" points="392.33 159.25 395.28 165.21 401.86 166.17 397.1 170.81 398.22 177.37 392.33 174.27 386.44 177.37 387.57 170.81 382.81 166.17 389.39 165.21 392.33 159.25"/><polygon class="cls-41" points="373.91 248.64 375.55 251.97 379.23 252.5 376.57 255.09 377.2 258.75 373.91 257.03 370.62 258.75 371.25 255.09 368.59 252.5 372.27 251.97 373.91 248.64"/><polygon class="cls-40" points="315.29 226.08 318.23 232.05 324.81 233.01 320.05 237.65 321.17 244.21 315.29 241.11 309.4 244.21 310.52 237.65 305.76 233.01 312.34 232.05 315.29 226.08"/><circle class="cls-9" cx="359.5" cy="209.7" r="32.83" transform="translate(-52.22 148.87) rotate(-21.85)"/><g class="cls-46"><path class="cls-12" d="M350.67,241.32a32.79,32.79,0,0,0,31.57-7.95A32.82,32.82,0,0,1,351,178a32.82,32.82,0,0,0-.36,63.33Z"/></g><path class="cls-20" d="M368.32,178.08a34.4,34.4,0,0,0-4.91-1,35.81,35.81,0,0,0,26.64,44.61,32.79,32.79,0,0,0-21.73-43.63Z"/><path class="cls-47" d="M326.78,207c-12.74-5-20.66-9.45-20-11.83,1.1-4,25.55-.62,54.6,7.49s51.71,17.89,50.6,21.86c-.66,2.38-9.71,2.13-23.1-.2"/></g></g></g></svg>