<?xml version="1.0" encoding="utf-8"?>
<!-- Generator: Adobe Illustrator 23.0.1, SVG Export Plug-In . SVG Version: 6.00 Build 0)  -->
<svg version="1.1" id="Layer_1" xmlns="http://www.w3.org/2000/svg" xmlns:xlink="http://www.w3.org/1999/xlink" x="0px" y="0px"
	 viewBox="0 0 413 423.4" style="enable-background:new 0 0 413 423.4;" xml:space="preserve">
<style type="text/css">
	.st0{opacity:0.41;fill:#AFAFAF;enable-background:new    ;}
	.st1{fill:none;stroke:#FFFFFF;stroke-width:1.95;stroke-miterlimit:10;stroke-dasharray:3.85,3.85;}
	.st2{opacity:0.87;fill:#515159;enable-background:new    ;}
	.st3{fill:#AFAFAF;}
	.st4{fill:#FEFEFE;}
	.st5{fill:#8B8B8C;}
	.st6{fill:#5A5A63;}
	.st7{fill:#EDB62B;}
	.st8{fill:#2F2F35;}
	.st9{fill:#A87D1D;}
	.st10{fill:#895436;}
	.st11{fill:#515159;}
	.st12{fill:#7C3AED;}
	.st13{fill:#FF7E6E;}
	.st14{fill:#6D28D9;}
	.st15{opacity:0.52;fill:#FFF6E7;enable-background:new    ;}
	.st16{opacity:0.28;fill:#4C2A29;enable-background:new    ;}
	.st17{fill:#4C2A29;}
	.st18{fill:#C64F4F;}
	.st19{fill:#803D3D;}
	.st20{fill:none;stroke:#2F2F35;stroke-width:1.34;stroke-linecap:round;stroke-miterlimit:10;}
	.st21{fill:none;stroke:#2F2F35;stroke-width:2.67;stroke-linecap:round;stroke-miterlimit:10;}
	.st22{fill:#8C4242;}
	.st23{opacity:0.67;fill:#A87D1D;enable-background:new    ;}
	.st24{fill:none;stroke:#7B3C38;stroke-width:1.14;stroke-miterlimit:10;}
	.st25{fill:#A5A5A5;}
	.st26{opacity:0.57;fill:none;stroke:#FFFFFF;stroke-width:1.11;stroke-miterlimit:10;enable-background:new    ;}
	.st27{fill:#FFFFFF;}
	.st28{fill:none;stroke:#2F2F35;stroke-width:0.82;stroke-linecap:round;stroke-miterlimit:10;}
	.st29{fill:none;stroke:#4C2A29;stroke-width:1.34;stroke-linecap:round;stroke-miterlimit:10;}
	.st30{fill:#ECECEC;}
	.st31{fill:#FFF6E7;}
	.st32{fill:none;stroke:#0F1201;stroke-miterlimit:10;}
	.st33{opacity:0.54;fill:#FFFFFF;enable-background:new    ;}
	.st34{opacity:0.57;fill:none;stroke:#0F1201;stroke-miterlimit:10;enable-background:new    ;}
	.st35{fill:none;stroke:#FEFEFE;stroke-width:2.24;stroke-linecap:round;stroke-miterlimit:10;}
	.st36{fill:#666666;}
	.st37{fill:#9E9E9E;}
	.st38{opacity:0.68;fill:#2F2F35;enable-background:new    ;}
	.st39{opacity:0.42;fill:#FFFFFF;enable-background:new    ;}
	.st40{fill:#CCCCCC;}
	.st41{opacity:0.75;fill:#FFFFFF;enable-background:new    ;}
	.st42{opacity:0.67;}
	.st43{fill:none;stroke:#666666;stroke-width:2;stroke-miterlimit:10;}
</style>
<title>hero-illustration</title>
<g>
	<g>
		<g id="OBJECTS">
			<path class="st0" d="M152.8,296c-4.1,0-8.1-0.2-12.2-0.5c-44.7-3.7-96.4-25-118.7-63.8c-19.5-34-27.1-77.9-18.2-115.8
				C12,80.3,37.8,51.4,73.9,40.5c40.6-12.3,85.6,2.7,125.5-14.2c58.2-24.5,131.4-5,172.1,41.5c36.2,41.3,44.9,107.9,33.6,159.4
				c-5.7,26.1-20.8,51.2-44.9,64.3c-19.1,10.5-42.2,12.5-64.1,9.8c-17.6-2.2-33.8-7.9-50.7-12.6c-13.6-3.7-24.7-1.8-38.6,0.9
				C189.2,293.2,171,296.1,152.8,296z"/>
			<path class="st1" d="M162.7,271.1c-3.3,0-6.6-0.1-9.9-0.4c-36.2-3-78-20.2-96-51.6c-15.7-27.5-21.9-63-14.8-93.7
				c6.7-28.8,27.6-52.1,56.8-61c32.9-10,69.2,2.1,101.6-11.5c47.1-19.8,106.3-4.1,139.3,33.6c29.3,33.4,36.3,87.3,27.2,129
				c-4.6,21.1-16.9,41.4-36.3,52c-15.5,8.5-34.2,10.1-51.8,7.9c-14.2-1.8-27.3-6.4-41-10.2c-11-3.1-20-1.5-31.2,0.8
				C192.2,268.8,177.5,271.1,162.7,271.1z"/>
			<ellipse class="st2" cx="373.9" cy="409.1" rx="17.6" ry="1.3"/>
			<path class="st3" d="M376.1,358.5c0,0-15.1-10.2-5.4-25.1s7.3-20,3.9-24.2c8.2,9.4,6.4,20,1.5,26.8S370.5,351.9,376.1,358.5z"/>
			<polygon class="st4" points="388.4,371.2 359.4,371.2 362.2,407.9 385.6,407.9 			"/>
			<rect x="356.3" y="369.3" class="st5" width="35.2" height="4.3"/>
			<path class="st6" d="M384.6,365.4h-21.4c-2.1,0-3.8,1.7-3.8,3.8l0,0h29l0,0C388.4,367.2,386.7,365.4,384.6,365.4z"/>
			<polygon class="st7" points="386.8,392.1 387.5,383.2 360.3,383.2 361,392.1 			"/>
			<path class="st3" d="M388.4,369.3L388.4,369.3c0-2.1-1.7-3.8-3.8-3.8H374c2.1,0,3.8,1.7,3.8,3.8l0,0h3.1v4.3h-3.3L375,408h10.6
				l2.6-34.3h3.3v-4.4H388.4z"/>
			<path class="st8" d="M232.5,140.6c0,0,6.1-19.1-2.8-24.6c-5.7-2.9-8.7,0.7-8.7,0.7s-2.7-13.5-21-9c-11.9,2.9-15.6-3.2-15.6-3.2
				s-0.1,16.9,8.1,22c5.9,5.1,3.6,18.8,3.6,18.8L232.5,140.6z"/>
			<path class="st2" d="M286.5,390.1c0,0,33,1,42.2,9.5c9.7,8.9,19.8,22.9-21.8,22.6s-78.6-11.7-113.6-8.1s-63.6,9.9-72,8.5
				s51.2-29.9,51.2-29.9l110.6,4.1L286.5,390.1z"/>
			<path class="st9" d="M255.6,315.9l-41.6-4.2l-41.6,4.2c0,0-2.5,19.6-10.5,30.1l52.1,18.7l52.1-18.7
				C258.1,335.6,255.6,315.9,255.6,315.9z"/>
			<path class="st9" d="M212.4,364.2l1.6,0.6l1.6-0.6c9.6-22,7.3-46.8,6.7-51.6l-8.4-0.8l-10.7,1.1
				C203.1,318.1,202.8,342.3,212.4,364.2z"/>
			<path class="st10" d="M172.2,317.5c0,0,43.7,19.3,86,10.9c-1.1-4.1-2-8.3-2.6-12.5l-41.6-4.2l-33.4,3.4L172.2,317.5L172.2,317.5z
				"/>
			<path class="st11" d="M192.4,126.4c5.9,5.1,3.6,18.8,3.6,18.8l7.7-1c8-7.1,16.9-16,15.6-19.4c-2.3-5.9-8.9-11.8-21-12.5
				s-14-7.9-14-7.9S184.3,121.4,192.4,126.4z"/>
			<path class="st12" d="M212.5,174.3l-34.4,12.5l-5.7,129.1c0,0,12.1,5.7,41.6,5.7V176.3L212.5,174.3z"/>
			<path class="st12" d="M215.6,174.3l34.4,12.5l5.7,129.1c0,0-12.1,5.7-41.6,5.7V176.3L215.6,174.3z"/>
			<path class="st13" d="M178.2,186.8l-0.2,0.1c-10,3.6-18,11.3-22,21.2l-36.9,89.3l31.4,3.7L177,236L178.2,186.8z"/>
			<path class="st13" d="M249.9,186.8l0.2,0.1c10,3.6,18,11.3,22,21.2l36.9,89.3l-31.4,3.7L251.1,236L249.9,186.8z"/>
			<path class="st12" d="M286.4,242.8l-14.3-34.7c-4-9.9-12-17.6-22-21.2l-0.2-0.1l1.2,49.2l7.5,18.4
				C268.6,246.1,278.7,243.3,286.4,242.8z"/>
			<path class="st12" d="M141.6,242.8l14.4-34.7c4-9.9,12-17.6,22-21.2l0.2-0.1L177,236l-7.5,18.4
				C159.4,246.1,149.4,243.3,141.6,242.8z"/>
			<path class="st14" d="M252.2,237.7c-0.8-1.2-1.6-2.5-2.2-3.8l1.2,2c0,0-13.1,72.6-48,85.3l0,0c3.4,0.2,7,0.3,11,0.3
				c29.4,0,41.6-5.7,41.6-5.7L252.2,237.7z"/>
			<path class="st15" d="M162,228.2c8.9-24.9,9.4-24.7,28.7-29.2s15.6-22.4,15.6-22.4l-18.1,6.6l-2.8,1l-7.2,2.6l-0.2,0.1
				c-10,3.6-18,11.3-22,21.2l-35.4,85.6C135.6,282.7,154.4,249.4,162,228.2z"/>
			<path class="st16" d="M266.1,228.2c-8.9-24.9-9.4-24.7-28.7-29.2s-15.6-22.4-15.6-22.4l18,6.6l2.8,1l7.2,2.6l0.2,0.1
				c10,3.6,18,11.3,22,21.2l35.4,85.6C292.5,282.7,273.7,249.4,266.1,228.2z"/>
			<path class="st13" d="M214.1,190.2H214c-5.1,0-9.2-4.1-9.2-9.2v-22h18.6v22C223.4,186.1,219.3,190.2,214.1,190.2
				C214.2,190.2,214.2,190.2,214.1,190.2z"/>
			<path class="st17" d="M223.2,176h0.1v-16.9h-8.7l-9.9,3.6C204.8,162.7,208.4,176,223.2,176z"/>
			<path class="st18" d="M235.7,145.9c0,3.3-2.7,6-6,6s-6-2.7-6-6s2.7-6,6-6S235.7,142.6,235.7,145.9z"/>
			<path class="st19" d="M230.9,151.7c0.8-3.6,1.4-7.4,1.6-11.1c-0.9-0.5-1.8-0.7-2.8-0.7c-3.3-0.4-6.3,2-6.6,5.3
				c-0.4,3.3,2,6.3,5.3,6.6c0.4,0,0.9,0,1.3,0C230.1,151.9,230.5,151.8,230.9,151.7z"/>
			<path class="st18" d="M192.4,145.9c0,3.3,2.7,6,6,6s6-2.7,6-6s-2.7-6-6-6S192.4,142.6,192.4,145.9z"/>
			<path class="st19" d="M197.2,151.7c-0.8-3.6-1.4-7.4-1.6-11.1c2.9-1.7,6.5-0.7,8.2,2.2s0.7,6.5-2.2,8.2c-1,0.6-2.1,0.8-3.2,0.8
				C198,151.9,197.6,151.8,197.2,151.7z"/>
			<path class="st13" d="M224.6,125h-21l-5.2,11.4l0.9,11.2c0.5,6,4.4,16.4,9.8,18.9c3.1,1.7,6.9,1.7,10.1,0
				c5.4-2.5,9.3-12.9,9.8-18.9l0.9-11.2L224.6,125z"/>
			<path class="st20" d="M219.4,139.3c2.5,0.6,5,0.6,7.5,0"/>
			<path class="st21" d="M218.3,132.8c0,0,5.1-0.9,8.2,0.9"/>
			<path class="st20" d="M208.7,139.3c-2.5,0.6-5,0.6-7.5,0"/>
			<path class="st21" d="M209.8,132.8c0,0-5.1-0.9-8.2,0.9"/>
			<path class="st15" d="M205.7,149.1c-0.7-11.4-2.1-24-2.1-24l-5.2,11.4l0.3,3.6h-0.2c-3.3-0.4-6.3,2-6.6,5.3
				c-0.4,3.3,2,6.3,5.3,6.6c0.4,0,0.9,0,1.3,0c0.5,0,1-0.1,1.5-0.2c1.4,5.8,4.8,12.8,9.1,14.9c1.6,0.8,3.3,1.2,5,1.3
				C209.2,162.7,206.2,156.1,205.7,149.1z"/>
			<path class="st22" d="M249.9,366.4l-118.8-36c-15.3-4.7-31.5,4-36.2,19.3c-0.1,0.4-0.2,0.8-0.3,1.2l-0.2,0.6
				c-4.1,15.5,5.2,31.3,20.7,35.4c0.8,0.2,1.6,0.4,2.4,0.5c43.9,7.7,123.5,20.7,165.4,22.3l17.6,11.8c2.7,1.8,6.2,1.5,8.5-0.7
				l0.1-0.1c2.8-2.6,2.9-7,0.3-9.8l-2.8-3c-2-7.6-7.3-13.9-14.6-17.1c-12.1-5.1-13.3-17.7-16.1-24.5S255.1,356.2,249.9,366.4z"/>
			<path class="st7" d="M94.6,350.8c4-15.5,19.9-24.8,35.4-20.8c0.4,0.1,0.8,0.2,1.2,0.3l40.3,12.2c-6.1,7.6-14.1,22.9-14.3,51.4
				c-14.7-2.4-28.3-4.7-39.6-6.7c-15.8-2.7-26.3-17.8-23.6-33.5c0.1-0.8,0.3-1.6,0.5-2.4L94.6,350.8z"/>
			<path class="st23" d="M132.1,375.9c0,4.7-1.1,9.3-3.2,13.5l-11.3-2c-15.8-2.7-26.3-17.8-23.6-33.5c0.1-0.8,0.3-1.6,0.5-2.4
				l0.2-0.6c0.4-1.4,0.8-2.8,1.4-4.1c2-0.4,4.1-0.6,6.2-0.6C118.7,346,132.1,359.4,132.1,375.9C132.1,375.9,132.1,375.9,132.1,375.9
				z"/>
			<path class="st24" d="M255.6,382.9c0,0-1.7,10-18.2,6.4"/>
			<path class="st16" d="M266.1,378.4c0,0-25.3-1.1-78.8-10.7c-43.4-7.7-56.1-29.9-59.4-38.1c1.1,0.2,2.2,0.5,3.2,0.8l118.8,36
				c5.1-10.3,23.3-6.8,26.2,0s4,19.4,16.1,24.5c7.2,3.1,12.6,9.5,14.6,17.1c0,0-12.5-8-20.4-9.7S266.1,378.4,266.1,378.4z"/>
			<path class="st8" d="M271.6,409.1c0,0,21.8,20.9,40.4,12.3c2.7-1.3,3.8-4.5,2.5-7.2c-0.1-0.3-0.3-0.6-0.5-0.9
				c-15.7-21.3-35.4-44.4-42.9-53.1c-1.9-2.2-4.9-3.1-7.6-2.3l-21.4,6.2L271.6,409.1z"/>
			<polygon class="st25" points="242.1,364 221.5,357.8 237.1,405.6 271.6,409.1 			"/>
			<path class="st13" d="M178.2,366.4l118.8-36c15.3-4.7,31.5,4,36.2,19.3c0.1,0.4,0.2,0.8,0.3,1.2l0.2,0.6
				c4.1,15.5-5.2,31.3-20.7,35.4c-0.8,0.2-1.6,0.4-2.4,0.5c-43.9,7.7-123.5,20.7-165.4,22.3l-17.7,11.8c-2.7,1.8-6.2,1.5-8.5-0.7
				l-0.1-0.1c-2.8-2.6-2.9-7-0.3-9.8l2.8-2.9c2-7.6,7.3-13.9,14.6-17.1c12.1-5.1,13.3-17.7,16.1-24.5S173.1,356.2,178.2,366.4z"/>
			<path class="st7" d="M333.5,350.8c-4-15.5-19.9-24.8-35.4-20.8c-0.4,0.1-0.8,0.2-1.2,0.3l-40.3,12.2c6.1,7.6,14.1,22.9,14.3,51.4
				c14.7-2.4,28.3-4.7,39.6-6.7c15.8-2.7,26.3-17.8,23.6-33.5c-0.1-0.8-0.3-1.6-0.5-2.4L333.5,350.8z"/>
			<path class="st23" d="M296,375.9c0,4.7,1.1,9.3,3.2,13.5l11.3-2c15.8-2.7,26.3-17.8,23.6-33.5c-0.1-0.8-0.3-1.6-0.5-2.4l-0.2-0.6
				c-0.4-1.4-0.8-2.8-1.4-4.1c-2-0.4-4.1-0.6-6.2-0.6C309.4,346,296,359.4,296,375.9C296,375.8,296,375.9,296,375.9z"/>
			<path class="st16" d="M162,378.4c0,0,25.3-1.1,78.8-10.7c43.4-7.7,56.1-29.9,59.4-38.1c-1.1,0.2-2.2,0.5-3.2,0.8l-118.8,36
				c-5.1-10.3-23.4-6.8-26.2,0s-4,19.4-16.1,24.5c-7.2,3.1-12.6,9.5-14.6,17.1c0,0,12.5-8,20.3-9.7S162,378.4,162,378.4z"/>
			<path class="st26" d="M135.9,390.9l-17.8-3.3c-16-2.6-26.9-17.6-24.3-33.6c0-0.1,0-0.2,0.1-0.3l0.1-0.6c2.7-16,17.9-26.7,33.8-24
				c1.3,0.2,2.6,0.5,3.9,1l33.6,10.6"/>
			<path class="st27" d="M207.9,148.9c-0.4,0-0.8,0.4-0.8,0.8c0,0.2,0.1,0.3,0.2,0.5c2.4,3.7,7.3,4.8,11,2.4c1-0.6,1.8-1.5,2.4-2.4
				c0.3-0.3,0.2-0.8-0.2-1.1c-0.1-0.1-0.3-0.2-0.5-0.2H207.9z"/>
			<path class="st28" d="M215.8,139v6.2c-1.1-0.5-2.3-0.5-3.4,0"/>
			<rect x="219.4" y="116.7" class="st13" width="1.5" height="9.7"/>
			<path class="st13" d="M309,297.4l0.1,0.2c3.5,9.9-0.7,20.8-10,25.7l-63.4,33.3l-0.3-0.8c-5.6-14.4,0.3-30.8,13.7-38.4l28.6-16.2
				L309,297.4z"/>
			<path class="st16" d="M295.6,317.8c0,2.3,0.5,4.5,1.6,6.5l1.9-1c7.1-3.8,11.5-11.3,11.2-19.4c-0.3,0-0.5,0-0.8,0
				C301.8,303.9,295.6,310.1,295.6,317.8z"/>
			<line class="st29" x1="277.6" y1="301.1" x2="295.6" y2="290.9"/>
			<path class="st13" d="M119.3,297.4l-0.1,0.2c-3.5,9.9,0.7,20.8,10,25.7l63.4,33.3l0.3-0.8c5.6-14.4-0.3-30.8-13.7-38.4
				l-28.6-16.2L119.3,297.4z"/>
			<path class="st16" d="M132.7,317.8c0,2.3-0.5,4.5-1.6,6.5l-1.9-1c-7.1-3.8-11.5-11.3-11.2-19.4c0.3,0,0.5,0,0.8,0
				C126.4,303.9,132.6,310.1,132.7,317.8z"/>
			<line class="st29" x1="150.6" y1="301.1" x2="132.7" y2="290.9"/>
			<path class="st29" d="M185.6,352.8c0,0,3.2-17.6-7.2-23.2"/>
			<path class="st29" d="M242.5,352.8c0,0-3.2-17.6,7.2-23.2"/>
			<path class="st8" d="M156.5,409.1c0,0-21.8,20.9-40.4,12.3c-2.7-1.3-3.8-4.5-2.5-7.2c0.2-0.3,0.3-0.6,0.5-0.9
				c15.7-21.3,35.4-44.4,42.9-53.1c1.9-2.2,4.9-3.1,7.6-2.3L186,364L156.5,409.1z"/>
			<polygon class="st30" points="186,364 206.6,357.8 191,405.6 156.5,409.1 			"/>
			<path class="st16" d="M177.5,377c6.1-0.6,14-1.6,23.8-3l5.3-16.3L186,364L177.5,377z"/>
			<path class="st31" d="M163,394.5l-11.9,18.1c-0.7,1.1-2.1,1.7-3.4,1.5h-0.1c-1.9-0.3-3.3-2-3-4c0.1-0.5,0.3-1,0.6-1.5l12.2-18
				c0.8-1.1,2.2-1.7,3.5-1.4h0.1c1.8,0.4,2.9,2.2,2.5,4C163.4,393.8,163.2,394.2,163,394.5z"/>
			<polygon class="st3" points="212.4,289.7 139.6,289.7 157.5,353.7 212.4,353.7 267.3,353.7 285.3,289.7 			"/>
			<rect x="157.5" y="353.7" class="st5" width="109.7" height="9.3"/>
			<ellipse class="st6" cx="212.5" cy="326.7" rx="17.8" ry="9.1"/>
			<rect x="139.6" y="285.5" class="st6" width="145.7" height="4.2"/>
			<rect x="163.6" y="356.3" class="st6" width="11" height="3.8"/>
			<rect x="179.5" y="356.3" class="st6" width="11" height="3.8"/>
			<line class="st32" x1="267.3" y1="358.3" x2="200.5" y2="358.3"/>
			<path class="st33" d="M139.6,289.7l18,64h39.1c23.2-26.9,37.3-64,37.3-64l-0.1-4.3h-94.3V289.7z"/>
			<line class="st34" x1="139.6" y1="289.7" x2="285.3" y2="289.7"/>
			<ellipse class="st2" cx="63.9" cy="409.1" rx="26.4" ry="1.3"/>
			<path class="st6" d="M67.8,395.9l1.7-1.9l-0.9,1l0.9-0.9c-0.2-0.2-21-21.3,4.1-116.6l-2.5-0.6C45.5,374,66.8,395.1,67.8,395.9z"
				/>
			<path class="st6" d="M60,279.1c9.5,8.7,7.9,18.9,7.9,18.9s-9.5-4-11.8-16.8c-0.2-1.3,0.6-2.5,1.9-2.7
				C58.7,278.4,59.5,278.6,60,279.1z"/>
			<path class="st6" d="M83.9,285.2c-12.5,3-16,12.8-16,12.8s10.3,1,18.4-9c0.8-1,0.7-2.5-0.3-3.3C85.4,285.2,84.6,285,83.9,285.2z"
				/>
			<path class="st6" d="M53.5,304c10.4,7.7,9.7,18,9.7,18s-9.9-3.1-13.4-15.5c-0.3-1.3,0.4-2.5,1.7-2.9
				C52.2,303.4,52.9,303.6,53.5,304z"/>
			<path class="st6" d="M77.8,307.7C65.7,312,63.2,322,63.2,322s10.4,0,17.4-10.8c0.7-1.1,0.3-2.6-0.8-3.2
				C79.2,307.6,78.5,307.5,77.8,307.7z"/>
			<path class="st6" d="M49.3,325.9c10.9,6.9,11,17.3,11,17.3s-10.1-2.4-14.5-14.5c-0.5-1.2,0.1-2.6,1.3-3
				C47.9,325.3,48.7,325.4,49.3,325.9z"/>
			<path class="st6" d="M73.9,327.7c-11.8,5.1-13.5,15.4-13.5,15.4s10.4-0.8,16.5-12.1c0.6-1.1,0.2-2.6-1-3.2
				C75.3,327.5,74.6,327.4,73.9,327.7z"/>
			<path class="st6" d="M80.4,260c0.2,12.9-8.4,18.7-8.4,18.7s-3.6-9.8,4.2-20c0.8-1,2.2-1.3,3.3-0.5
				C80.1,258.6,80.4,259.3,80.4,260z"/>
			<rect x="49.1" y="353.7" class="st7" width="27.7" height="54.8"/>
			<rect x="65.7" y="353.7" class="st23" width="11.1" height="54.8"/>
			<path class="st9" d="M88.9,92.4L79,94.9c-1.5,0.3-2.9-0.5-3.3-2l-1-3.9l15.2-3.8l1,3.9C91.3,90.6,90.4,92.1,88.9,92.4
				C89,92.4,88.9,92.4,88.9,92.4z"/>
			<path class="st9" d="M24.3,39.5l86.1-21.4c1.5-0.4,3,0.5,3.4,2L128,77.2c0.4,1.5-0.5,3-2,3.4L39.9,102c-1.5,0.4-3-0.5-3.4-2
				L22.3,42.9C21.9,41.4,22.8,39.8,24.3,39.5z"/>
			<polygon class="st7" points="123.4,70.7 121,77.6 44.6,96.6 37.8,92 23.8,35.4 109.3,14.1 			"/>
			
				<rect x="30.2" y="29.4" transform="matrix(0.9704 -0.2414 0.2414 0.9704 -12.5942 14.1996)" class="st27" width="43" height="58.3"/>
			
				<rect x="28.4" y="34.1" transform="matrix(0.9704 -0.2414 0.2414 0.9704 -7.1211 12.1461)" class="st3" width="35.3" height="2"/>
			
				<rect x="29.9" y="40.4" transform="matrix(0.9704 -0.2414 0.2414 0.9704 -8.6037 12.7128)" class="st3" width="35.3" height="2"/>
			
				<rect x="31.5" y="46.8" transform="matrix(0.9704 -0.2414 0.2414 0.9704 -10.0807 13.2807)" class="st3" width="35.3" height="2"/>
			
				<rect x="33.1" y="53.1" transform="matrix(0.9704 -0.2414 0.2414 0.9704 -11.5633 13.8475)" class="st3" width="35.3" height="2"/>
			
				<rect x="34.7" y="59.4" transform="matrix(0.9704 -0.2414 0.2414 0.9704 -13.0458 14.4142)" class="st3" width="35.3" height="2"/>
			
				<rect x="36.2" y="65.8" transform="matrix(0.9704 -0.2414 0.2414 0.9704 -14.5275 14.9833)" class="st3" width="35.3" height="2"/>
			
				<rect x="37.8" y="72.1" transform="matrix(0.9704 -0.2414 0.2414 0.9704 -16.0054 15.5489)" class="st3" width="35.3" height="2"/>
			
				<rect x="39.4" y="78.4" transform="matrix(0.9704 -0.2414 0.2414 0.9704 -17.488 16.1157)" class="st3" width="35.3" height="2"/>
			
				<rect x="74" y="18.5" transform="matrix(0.9704 -0.2414 0.2414 0.9704 -8.6633 24.4674)" class="st27" width="43" height="58.3"/>
			
				<rect x="71.9" y="23.3" transform="matrix(0.9704 -0.2414 0.2414 0.9704 -3.2178 22.3386)" class="st3" width="35.3" height="2"/>
			
				<rect x="73.5" y="29.6" transform="matrix(0.9704 -0.2414 0.2414 0.9704 -4.7004 22.9053)" class="st3" width="35.3" height="2"/>
			
				<rect x="75.1" y="35.9" transform="matrix(0.9704 -0.2414 0.2414 0.9704 -6.1798 23.4735)" class="st3" width="35.3" height="2"/>
			<rect x="76.6" y="42.3" transform="matrix(0.9704 -0.2414 0.2414 0.9704 -7.66 24.04)" class="st3" width="35.3" height="2"/>
			<rect x="78.2" y="48.6" transform="matrix(0.9704 -0.2414 0.2414 0.9704 -9.1416 24.609)" class="st3" width="35.3" height="2"/>
			
				<rect x="79.8" y="54.9" transform="matrix(0.9704 -0.2414 0.2414 0.9704 -10.6219 25.1749)" class="st3" width="35.3" height="2"/>
			
				<rect x="81.4" y="61.2" transform="matrix(0.9704 -0.2414 0.2414 0.9704 -12.1021 25.7414)" class="st3" width="35.3" height="2"/>
			
				<rect x="82.9" y="67.6" transform="matrix(0.9704 -0.2414 0.2414 0.9704 -13.5838 26.3105)" class="st3" width="35.3" height="2"/>
			<path class="st7" d="M86.3,89.1l-6.6,1.6c-1.4,0.4-2.9-0.5-3.3-2c0,0,0,0,0,0l-0.6-2.4l11.8-3l0.6,2.4c0.4,1.4-0.4,2.9-1.9,3.3
				C86.4,89.1,86.3,89.1,86.3,89.1z"/>
			<path class="st7" d="M232.7,7.8c-3.5-3.2-7.7-5.6-12.2-7l-0.2-0.1c-4-1.1-8.3-1.1-12.3,0l-0.2,0.1c-4.5,1.4-8.7,3.8-12.2,7
				c-10.2,9.6-8.6,27.2,1.4,36.5c2.8,2.6,4,6,4.9,9.6c0.3,1.1,1.7,12.7,1.2,12.7h22.1c-0.5,0,1-11.6,1.2-12.7c0.9-3.7,2.1-7,4.9-9.7
				C241.2,35.1,242.8,17.5,232.7,7.8z"/>
			<path class="st15" d="M210.1,54c-0.9-3.7-2.1-7-4.9-9.7c-9.9-9.3-11.6-26.8-1.4-36.5c3.5-3.2,7.7-5.6,12.2-7l0.2-0.1
				c0.7-0.2,1.3-0.3,2-0.4c-3.4-0.6-6.9-0.5-10.3,0.4l-0.2,0.1c-4.5,1.4-8.7,3.8-12.2,7c-10.2,9.6-8.6,27.2,1.4,36.5
				c2.8,2.6,4,6,4.9,9.6c0.3,1.1,1.7,12.7,1.2,12.7h8.3C211.9,66.7,210.4,55.1,210.1,54z"/>
			<path class="st35" d="M214.1,66.7V39.6l4.8-2.8c1-0.5,1.4-1.7,0.9-2.7c-0.3-0.5-0.8-0.9-1.4-1.1l-8.7-2.3c-0.9-0.2-1.4-1.1-1.2-2
				c0.1-0.5,0.5-0.9,0.9-1.1l4.7-2.1v-9.2"/>
			<path class="st8" d="M227.4,70.5c0,0.8-0.7,1.5-1.5,1.5c0,0,0,0,0,0h-24.4c-0.8,0-1.5-0.7-1.5-1.5l0,0c0-0.8,0.7-1.5,1.5-1.5
				h24.4C226.7,69,227.4,69.6,227.4,70.5L227.4,70.5z"/>
			<path class="st8" d="M227.4,74.9c0,0.8-0.7,1.5-1.5,1.5c0,0,0,0,0,0h-24.4c-0.8,0-1.5-0.7-1.5-1.5c0,0,0,0,0,0l0,0
				c0-0.8,0.7-1.5,1.5-1.5h24.4C226.7,73.5,227.4,74.1,227.4,74.9L227.4,74.9z"/>
			<path class="st8" d="M227.4,79.4c0,0.8-0.7,1.5-1.5,1.5l0,0h-24.4c-0.8,0-1.5-0.7-1.5-1.5l0,0c0-0.8,0.7-1.5,1.5-1.5c0,0,0,0,0,0
				h24.4C226.7,77.9,227.4,78.6,227.4,79.4C227.4,79.4,227.4,79.4,227.4,79.4z"/>
			<path class="st8" d="M213.7,91.4c4.8,0,8.7-3.9,8.7-8.7v0H205C205,87.5,208.9,91.4,213.7,91.4C213.7,91.4,213.7,91.4,213.7,91.4z
				"/>
			<path class="st36" d="M316.9,97.1v-7h-3.1c-0.6-3.3-1.9-6.3-3.9-9l2.5-2.5l-5-5l-2.5,2.6c-2.7-1.8-5.7-3-8.9-3.4v-3.6h-7v3.8
				c-3.1,0.6-6,1.8-8.5,3.7l-2.5-2.5l-5,5l2.5,2.5c-1.9,2.7-3.1,5.7-3.6,8.9h-3.5v7h3.7c0.6,3.1,1.8,6.1,3.7,8.7l-2.8,2.7l5,5
				l2.8-2.8c2.6,1.8,5.6,3,8.7,3.6v3.8h7v-3.8c3.1-0.5,6.1-1.7,8.7-3.5l2.3,2.3l5-4.9l-2.4-2.4c2-2.7,3.3-5.9,3.8-9.2H316.9z
				 M292.9,105.7c-6.6,0-11.9-5.3-11.9-11.9c0-6.6,5.3-11.9,11.9-11.9c6.6,0,11.9,5.3,11.9,11.9c0,0,0,0,0,0
				C304.8,100.4,299.4,105.7,292.9,105.7C292.9,105.7,292.9,105.7,292.9,105.7z"/>
			<path class="st37" d="M344.8,123.7v-4H343c-0.3-1.9-1.1-3.7-2.3-5.2l1.4-1.4l-2.9-2.9l-1.5,1.5c-1.5-1.1-3.3-1.7-5.1-2v-2.1h-4
				v2.2c-1.8,0.3-3.4,1.1-4.9,2.1l-1.4-1.4l-2.9,2.9l1.5,1.4c-1.1,1.5-1.8,3.3-2.1,5.2h-2v4h2c0.3,1.8,1.1,3.5,2.1,5l-1.6,1.6
				l2.9,2.9l1.6-1.6c1.5,1,3.2,1.7,5,2.1v2.2h4v-2.2c1.8-0.3,3.5-1,5-2l1.3,1.3l2.9-2.9l-1.3-1.3c1.1-1.6,1.9-3.4,2.2-5.3
				L344.8,123.7z M331,128.7c-3.8,0-6.9-3.1-6.9-6.9c0-3.8,3.1-6.9,6.9-6.9s6.9,3.1,6.9,6.9c0,0,0,0,0,0
				C337.8,125.6,334.8,128.6,331,128.7L331,128.7z"/>
			<path class="st5" d="M408.5,71.3V56.9h-6.4c-1.2-6.7-3.9-13-8-18.5l5-5L389,23.2l-5.2,5.2c-5.5-3.7-11.7-6.1-18.3-7.1v-7.5h-14.4
				v7.8c-6.3,1.2-12.3,3.8-17.5,7.6l-5.1-5.1l-10.2,10.2l5.2,5.2c-3.8,5.5-6.4,11.8-7.4,18.4H309v14.4h7.3
				c1.2,6.5,3.8,12.6,7.6,17.9l-5.6,5.6l10.2,10.2l5.7-5.7c5.3,3.7,11.4,6.2,17.8,7.3v7.8h14.4v-7.8c6.4-1.1,12.5-3.5,17.8-7.2
				l4.8,4.8l10.2-10.2l-4.7-4.7c4.1-5.6,6.7-12,7.8-18.8L408.5,71.3z M359.2,89c-13.5,0-24.5-11-24.5-24.5c0-13.5,11-24.5,24.5-24.5
				s24.5,11,24.5,24.5v0C383.7,78,372.7,89,359.2,89z"/>
			<circle class="st36" cx="358.8" cy="64.6" r="14.4"/>
			<path class="st6" d="M78.9,138.1C48,139.9,24,158.4,25.3,179.4s27.3,36.4,58.2,34.5h0.1c2.7-0.2,4.7-2.5,4.6-5.2
				c0-0.3-0.1-0.6-0.1-0.9c-2.7-10.3,3.5-20.8,13.8-23.5c1-0.3,2-0.4,3.1-0.5c6.9-0.6,13.7,2.5,17.6,8.3c1.5,2.2,4.6,2.8,6.8,1.3
				c0.4-0.3,0.8-0.6,1.1-1c4.6-6,7.1-12.8,6.7-19.9C135.8,151.6,109.8,136.2,78.9,138.1z"/>
			<path class="st5" d="M78.7,134.7C47.8,136.5,23.8,155,25.1,176s27.3,36.4,58.2,34.5h0.1c2.7-0.2,4.7-2.5,4.5-5.2
				c0-0.3-0.1-0.6-0.1-0.9c-2.6-10.3,3.6-20.8,13.9-23.4c7.8-2,16,1.1,20.6,7.7c1.5,2.2,4.6,2.8,6.8,1.3c0.4-0.3,0.8-0.6,1.1-1
				c4.6-6,7.1-12.8,6.7-19.9C135.6,148.3,109.6,132.8,78.7,134.7z"/>
			<path class="st7" d="M67.8,194.1c0.2,3.7-2.6,6.9-6.3,7.1c-3.7,0.2-6.9-2.6-7.1-6.3c-0.2-3.7,2.6-6.9,6.3-7.1
				C64.4,187.5,67.6,190.3,67.8,194.1C67.8,194.1,67.8,194.1,67.8,194.1z"/>
			<path class="st7" d="M49.4,181.3c0.3,3.7-2.6,6.9-6.3,7.2s-6.9-2.6-7.2-6.3c-0.3-3.7,2.6-6.9,6.3-7.2c0,0,0,0,0,0
				C46,174.8,49.2,177.6,49.4,181.3z"/>
			<path class="st7" d="M54.8,158.9c0.2,3.7-2.6,6.9-6.3,7.1c-3.7,0.2-6.9-2.6-7.1-6.3s2.6-6.9,6.3-7.1c0,0,0,0,0,0
				C51.4,152.4,54.6,155.2,54.8,158.9C54.8,158.9,54.8,158.9,54.8,158.9z"/>
			<path class="st7" d="M77.6,146.9c0.2,3.7-2.6,6.9-6.3,7.1c-3.7,0.2-6.9-2.6-7.1-6.3c-0.2-3.7,2.6-6.9,6.3-7.1
				C74.2,140.3,77.4,143.1,77.6,146.9C77.6,146.9,77.6,146.9,77.6,146.9z"/>
			<path class="st7" d="M103.3,147.2c0.2,3.7-2.6,6.9-6.3,7.1c-3.7,0.2-6.9-2.6-7.1-6.3c-0.2-3.7,2.6-6.9,6.3-7.1
				C99.9,140.6,103.1,143.5,103.3,147.2C103.3,147.2,103.3,147.2,103.3,147.2z"/>
			<path class="st7" d="M124.9,159.4c0.2,3.7-2.6,6.9-6.3,7.1c-3.7,0.2-6.9-2.6-7.1-6.3c-0.2-3.7,2.6-6.9,6.3-7.1c0,0,0,0,0,0
				C121.5,152.8,124.7,155.7,124.9,159.4C124.9,159.4,124.9,159.4,124.9,159.4z"/>
			<path class="st38" d="M108.8,138.7l-6.4,13.3c-0.9-0.1-1.7,0.4-2,1.3v0.1c-0.4,1,0,2.2,1.1,2.6c0,0,0,0,0.1,0l0.6,0.2
				c-0.1,0-0.7-0.1-2,1.8l0,0l-0.2,0.4l0,0l-0.2,0.4v0.1l-0.2,0.4l-0.1,0.1l-0.2,0.4c0,0.1-0.1,0.1-0.1,0.2
				c-0.1,0.1-0.2,0.3-0.2,0.4l-0.1,0.2c-0.1,0.1-0.2,0.3-0.2,0.4l-0.1,0.3c-0.1,0.1-0.2,0.3-0.2,0.5s-0.1,0.2-0.2,0.3l-0.2,0.5
				c-0.1,0.1-0.1,0.3-0.2,0.4s-0.2,0.3-0.2,0.5l-0.2,0.4c-0.1,0.2-0.2,0.3-0.2,0.5s-0.2,0.4-0.2,0.5s-0.2,0.4-0.2,0.5
				s-0.2,0.4-0.3,0.6s-0.1,0.4-0.2,0.6l-0.3,0.7c-0.1,0.2-0.1,0.4-0.2,0.6s-0.2,0.5-0.3,0.8s-0.1,0.3-0.2,0.5s-0.3,0.7-0.4,1
				c-0.1,0.1-0.1,0.3-0.2,0.4c-0.2,0.5-0.4,1-0.6,1.5c-0.5,1.4-1.1,3.1-1.8,4.9c-0.1,0.2-0.2,0.4-0.2,0.6l-0.3,0.9l-0.3,0.7
				l-0.4,1.2c-0.1,0.2-0.1,0.3-0.2,0.5c-0.1,0.4-0.3,0.8-0.4,1.2c-0.1,0.2-0.1,0.4-0.2,0.6c-0.1,0.4-0.3,0.8-0.4,1.1
				s-0.2,0.5-0.3,0.7c-0.2,0.4-0.3,0.9-0.5,1.4l-0.2,0.5c-0.2,0.5-0.3,0.9-0.5,1.4l-0.2,0.6c-0.2,0.4-0.3,0.9-0.5,1.3l-0.2,0.7
				c-0.2,0.5-0.3,0.9-0.5,1.4c-0.1,0.2-0.2,0.4-0.2,0.6c-0.2,0.5-0.3,0.9-0.5,1.4c-0.1,0.2-0.2,0.5-0.3,0.7l-0.4,1.3
				c-0.1,0.3-0.2,0.6-0.3,0.9l-0.4,1.1l-0.4,1.1l-0.4,1.2l-0.2,0.6l0,0c-1.1,3.3-2.3,6.6-3.4,9.8c1,0,2-0.1,3-0.1h0.1
				c2.7-0.2,4.7-2.5,4.5-5.2c0-0.3-0.1-0.6-0.1-0.9c-2.6-10.1,3.3-20.4,13.3-23.3l2.4-5.2c7.2-15.7,5.4-17.1,5.2-17.2l0.6,0.2
				c1,0.4,2.2,0,2.6-1.1c0,0,0,0,0-0.1l0,0c0.4-1,0-2.1-0.9-2.6l4.8-13.7C113.5,140.5,111.1,139.5,108.8,138.7z M102.1,156.2
				L102.1,156.2l0.2,0.1L102.1,156.2z"/>
			<path class="st39" d="M53.7,157.9c0.1,1.6-1.1,2.9-2.7,3s-2.9-1.1-3-2.7c-0.1-1.6,1.1-2.9,2.6-3
				C52.2,155.1,53.5,156.3,53.7,157.9C53.6,157.9,53.6,157.9,53.7,157.9z"/>
			<path class="st39" d="M76.4,146.1c0.1,1.6-1.1,2.9-2.7,3s-2.9-1.1-3-2.7c-0.1-1.5,1.1-2.9,2.6-3C75,143.3,76.3,144.5,76.4,146.1
				C76.4,146,76.4,146.1,76.4,146.1z"/>
			<path class="st39" d="M100.6,145.5c0.1,1.6-1.1,2.9-2.7,3s-2.9-1.1-3-2.7c-0.1-1.6,1.1-2.9,2.6-3
				C99.2,142.7,100.5,143.9,100.6,145.5C100.6,145.4,100.6,145.5,100.6,145.5z"/>
			<path class="st39" d="M46.6,179.3c0.1,1.6-1.1,2.9-2.7,3s-2.9-1.1-3-2.7c-0.1-1.5,1.1-2.9,2.6-3
				C45.1,176.5,46.5,177.7,46.6,179.3C46.6,179.3,46.6,179.3,46.6,179.3z"/>
			<path class="st39" d="M66.6,192.1c0.1,1.6-1.1,2.9-2.7,3s-2.9-1.1-3-2.7c-0.1-1.5,1.1-2.9,2.6-3
				C65.1,189.4,66.5,190.5,66.6,192.1C66.6,192.1,66.6,192.1,66.6,192.1z"/>
			<path class="st7" d="M133.4,134.6c0,0,9.2-5,9.8-12.8c-0.1-2.9-0.7-5.8-2-8.4l-1.3,4.7c0,0-0.7-7.4-6-11s-4-2.6-4-2.6
				s4.5,5.9-0.5,15.8s1.3,13.2,1.3,13.2L133.4,134.6z"/>
			<path class="st9" d="M132.9,131.5c0,0-1.7-8.5,2.1-13.1c-4.9,6.3-6,11.3-4.7,15.4L132.9,131.5z"/>
			<path class="st27" d="M128.4,133.1c0.8-1.6,2.8-2.4,4.4-1.7l0,0l0,0c1.7,0.7,2.6,2.6,2,4.3l-6,18.6l-4.6-1.9l-4.6-1.9
				L128.4,133.1z"/>
			<path class="st40" d="M119,154.9l7.7,3.1c1,0.4,2.2,0,2.6-1.1c0,0,0,0,0-0.1l0,0c0.4-1,0-2.2-1.1-2.6c0,0,0,0-0.1,0l-7.7-3.2
				c-1-0.4-2.2,0-2.6,1.1c0,0,0,0,0,0.1l0,0c-0.5,1-0.1,2.2,0.9,2.7C118.9,154.8,119,154.8,119,154.9z"/>
			<path class="st8" d="M119.7,155.1l3.2,1.3l3.2,1.3c0,0,2.4,0.6-5.1,17.2c-5.6,12.4-20.2,43.4-28.5,59.9c-0.3,0.7-1.2,1-1.9,0.7
				c-0.7-0.3-1-1.1-0.7-1.8c5.6-17.7,16.8-50,21.4-62.8C117.5,153.8,119.7,155.1,119.7,155.1z"/>
			<path class="st27" d="M102.4,214.6c-3.6,7.5-7.1,14.7-9.9,20.2c-0.3,0.7-1.2,1-1.9,0.7c-0.7-0.3-1-1.1-0.7-1.8
				c1.9-5.9,4.4-13.5,7.1-21.4L102.4,214.6z"/>
			<path class="st41" d="M101.2,199.8L101.2,199.8c11.9-14.7,16.4-42.8,16.4-42.9c-1.3,1.9-3.4,5.9-6.3,14.2
				C109.1,177.3,105.2,188.2,101.2,199.8z"/>
			<polygon class="st37" points="331.6,165.2 333.7,169.5 338.5,170.2 335,173.5 335.9,178.2 331.6,176 327.4,178.2 328.2,173.5 
				324.8,170.2 329.5,169.5 			"/>
			<polygon class="st36" points="392.3,159.3 395.3,165.2 401.9,166.2 397.1,170.8 398.2,177.4 392.3,174.3 386.4,177.4 
				387.6,170.8 382.8,166.2 389.4,165.2 			"/>
			<polygon class="st37" points="373.9,248.6 375.5,252 379.2,252.5 376.6,255.1 377.2,258.8 373.9,257 370.6,258.8 371.3,255.1 
				368.6,252.5 372.3,252 			"/>
			<polygon class="st36" points="315.3,226.1 318.2,232.1 324.8,233 320,237.6 321.2,244.2 315.3,241.1 309.4,244.2 310.5,237.6 
				305.8,233 312.3,232.1 			"/>
			
				<ellipse transform="matrix(0.9282 -0.3722 0.3722 0.9282 -52.2225 148.863)" class="st7" cx="359.5" cy="209.7" rx="32.8" ry="32.8"/>
			<g class="st42">
				<path class="st9" d="M350.7,241.3c11.2,3.1,23.2,0.1,31.6-7.9c-17.5,4.7-35.5-5.7-40.2-23.2c-3.1-11.6,0.3-23.9,9-32.2
					c-17.5,4.7-27.9,22.6-23.3,40.2C330.7,229.4,339.4,238.2,350.7,241.3L350.7,241.3z"/>
			</g>
			<path class="st15" d="M368.3,178.1c-1.6-0.5-3.3-0.8-4.9-1c-5.3,19,5.8,38.8,24.8,44.1c0.6,0.2,1.2,0.3,1.8,0.5
				c6.6-16.8-1.6-35.9-18.5-42.5C370.5,178.7,369.4,178.4,368.3,178.1L368.3,178.1z"/>
			<path class="st43" d="M326.8,207c-12.7-5-20.7-9.4-20-11.8c1.1-4,25.5-0.6,54.6,7.5s51.7,17.9,50.6,21.9
				c-0.7,2.4-9.7,2.1-23.1-0.2"/>
		</g>
	</g>
</g>
</svg>
