<svg xmlns="http://www.w3.org/2000/svg" viewBox="0 0 74.47 76.14"><defs><style>.cls-1{fill:#afb9d2;}.cls-2{fill:#d7deed;}.cls-3{fill:#e64c42;}.cls-4{fill:#3c3b3d;}</style></defs><title>Asset 6</title><g id="Layer_2" data-name="Layer 2"><g id="_44" data-name="44"><path class="cls-1" d="M6.29,61.17A3.33,3.33,0,1,1,3,64.5,3.33,3.33,0,0,1,6.29,61.17Z"/><path class="cls-1" d="M65.33,4.63a4.16,4.16,0,1,1-4.16,4.16A4.15,4.15,0,0,1,65.33,4.63Z"/><path class="cls-1" d="M53.74,16.12,66.68,29.05a26.61,26.61,0,0,1,0,37.63l-9.41-9.41a13.29,13.29,0,0,0,0-18.81L38.46,19.65l9.41-9.41Z"/><path class="cls-2" d="M19.65,38.46,38.46,57.27a13.29,13.29,0,0,0,18.81,0l9.41,9.41a26.62,26.62,0,0,1-37.63,0L16.12,53.75l-5.88-5.88Z"/><rect class="cls-3" x="33.57" y="7.85" width="13.3" height="8.31" transform="translate(3.29 31.95) rotate(-44.99)"/><polygon class="cls-3" points="13.77 32.58 19.64 38.46 10.24 47.87 10.24 47.87 4.36 41.99 13.77 32.58"/><path class="cls-4" d="M71.15,19.6a1.66,1.66,0,1,1-1.67,1.66A1.66,1.66,0,0,1,71.15,19.6Z"/><path class="cls-4" d="M31.24,31.24a1.66,1.66,0,1,1-1.67,1.66A1.66,1.66,0,0,1,31.24,31.24Z"/><path class="cls-4" d="M9.62,72.81A1.67,1.67,0,1,1,8,74.47,1.66,1.66,0,0,1,9.62,72.81Z"/><circle class="cls-4" cx="7.96" cy="2.97" r="1.66" transform="translate(-0.01 0.02) rotate(-0.13)"/><path class="cls-4" d="M4.63,51.19A1.67,1.67,0,1,1,3,52.86,1.66,1.66,0,0,1,4.63,51.19Z"/><path class="cls-1" d="M.83,39.29a.86.86,0,0,1-.59-.24.85.85,0,0,1,0-1.18l9.41-9.4a.83.83,0,1,1,1.18,1.17L1.42,39.05A.84.84,0,0,1,.83,39.29Z"/><path class="cls-1" d="M29.05,11.07a.86.86,0,0,1-.59-.24.85.85,0,0,1,0-1.18L37.87.24a.85.85,0,0,1,1.18,0,.85.85,0,0,1,0,1.18l-9.41,9.41A.82.82,0,0,1,29.05,11.07Z"/><path class="cls-4" d="M71.15,75.3H14.61a.83.83,0,0,1,0-1.66H71.15a.83.83,0,0,1,0,1.66Z"/><path class="cls-3" d="M4.63,25.42a.83.83,0,0,1-.83-.83V11.28a.78.78,0,0,1,.29-.62.83.83,0,0,1,.66-.2L15.44,12V6.29a.83.83,0,0,1,.83-.83h6.65a.84.84,0,0,1,0,1.67H17.1V13a.8.8,0,0,1-.28.62.87.87,0,0,1-.67.2L5.46,12.24V24.59A.83.83,0,0,1,4.63,25.42Z"/></g></g></svg>