<svg xmlns="http://www.w3.org/2000/svg" viewBox="0 0 69.84 76.5"><defs><style>.cls-1{fill:#3c3b3d;}.cls-2{fill:#d7deed;}.cls-3{fill:#80af52;}.cls-4{fill:#fff;}.cls-5{fill:#afb9d2;}.cls-6{fill:#70993f;}</style></defs><title>Asset 7</title><g id="Layer_2" data-name="Layer 2"><g id="_44" data-name="44"><path class="cls-1" d="M5,13.3H64.8a5,5,0,0,1,5,5V61.47a5,5,0,0,1-5,5H5a5,5,0,0,1-5-5V18.35A5,5,0,0,1,5,13.3Z"/><path class="cls-2" d="M7.48,71.51A2.5,2.5,0,1,1,5,74,2.5,2.5,0,0,1,7.48,71.51Z"/><path class="cls-2" d="M63.19,0a3.33,3.33,0,1,1-3.33,3.33A3.33,3.33,0,0,1,63.19,0Z"/><path class="cls-2" d="M24.11,3.33a2.5,2.5,0,1,1-2.49,2.49A2.49,2.49,0,0,1,24.11,3.33Z"/><polygon class="cls-3" points="6.65 19.96 6.65 59.87 63.19 59.87 63.19 53.22 63.19 19.96 6.65 19.96"/><path class="cls-4" d="M52.11,36.93a6,6,0,0,1,1.21-.11,3.65,3.65,0,0,1,2.36.67,2.22,2.22,0,0,1,.82,1.8,2.26,2.26,0,0,1-.15.85,2.48,2.48,0,0,1-.4.66,3.26,3.26,0,0,1-.54.51c-.2.15-.4.28-.61.41l-.51.3-.6.35c-.19.11-.37.23-.54.35a2.66,2.66,0,0,0-.37.32h3.87v2.05H49.56a6.15,6.15,0,0,1,.1-1.19,3,3,0,0,1,.34-1,3.26,3.26,0,0,1,.65-.81,6.18,6.18,0,0,1,1.05-.73l1.11-.61a5.45,5.45,0,0,0,.71-.43A1.46,1.46,0,0,0,53.9,40a.55.55,0,0,0,.12-.35.79.79,0,0,0-.29-.64,1.22,1.22,0,0,0-.81-.24,1.79,1.79,0,0,0-1,.29,4.56,4.56,0,0,0-.86.76l-1.45-1.68.06-.06a2.86,2.86,0,0,1,.55-.44,5.87,5.87,0,0,1,.87-.43A6.56,6.56,0,0,1,52.11,36.93Z"/><path class="cls-4" d="M46.89,41.7l1.91,1.13a2.85,2.85,0,0,1-.67,1,4.12,4.12,0,0,1-1,.75,5.54,5.54,0,0,1-1.24.45,5.16,5.16,0,0,1-1.28.16,4.49,4.49,0,0,1-2-.45A5.07,5.07,0,0,1,41,43.54,5.47,5.47,0,0,1,39.59,40a5.1,5.1,0,0,1,.34-1.82,5,5,0,0,1,1-1.61,5.11,5.11,0,0,1,1.6-1.16,5.05,5.05,0,0,1,2.14-.44,4.89,4.89,0,0,1,2.47.61,4,4,0,0,1,1.56,1.6l-1.8,1.25a2,2,0,0,0-.43-.66,2.64,2.64,0,0,0-.58-.43,2.56,2.56,0,0,0-.64-.22A2.85,2.85,0,0,0,44.6,37a2.41,2.41,0,0,0-1.17.27,2.54,2.54,0,0,0-.82.7,3.06,3.06,0,0,0-.49,1A4.11,4.11,0,0,0,42,40a3.74,3.74,0,0,0,.18,1.15,3,3,0,0,0,.53,1,2.74,2.74,0,0,0,.84.68,2.52,2.52,0,0,0,1.11.25,3,3,0,0,0,.65-.08,2.62,2.62,0,0,0,.64-.24,2.26,2.26,0,0,0,.56-.43A1.85,1.85,0,0,0,46.89,41.7Z"/><path class="cls-5" d="M46.56,0A1.67,1.67,0,1,1,44.9,1.66,1.66,1.66,0,0,1,46.56,0Z"/><path class="cls-5" d="M36.58,69.84a1.67,1.67,0,1,1-1.66,1.67A1.67,1.67,0,0,1,36.58,69.84Z"/><polygon class="cls-4" points="35.71 34.98 34.13 38.16 33.08 40.26 30.45 34.98 27.92 34.98 27.92 45.09 30.25 45.09 30.25 39.04 32.45 43.44 33.7 43.44 35.9 39.04 35.9 45.09 38.23 45.09 38.23 34.98 35.71 34.98"/><rect class="cls-4" x="21.6" y="41.87" width="4.51" height="1.45"/><rect class="cls-4" x="21.6" y="39" width="4.51" height="1.45"/><polygon class="cls-4" points="15.53 39 19.51 39 19.51 40.89 15.53 40.89 15.53 43.04 20.3 43.04 20.3 45.09 13.19 45.09 13.19 34.98 20.17 34.98 20.17 37.03 15.53 37.03 15.53 39"/><path class="cls-6" d="M13.3,51.55a1.67,1.67,0,1,1-1.66,1.66A1.67,1.67,0,0,1,13.3,51.55Z"/><path class="cls-5" d="M11.64,5A1.67,1.67,0,1,1,10,6.65,1.66,1.66,0,0,1,11.64,5Z"/><path class="cls-6" d="M63.19,52.38H18.29a.84.84,0,0,0,0,1.67h44.9V52.38Z"/><path class="cls-6" d="M48.22,27.44H21.62a.83.83,0,1,1,0-1.66h26.6a.83.83,0,1,1,0,1.66Z"/></g></g></svg>