<svg xmlns="http://www.w3.org/2000/svg" viewBox="0 0 73.17 71.76"><defs><style>.cls-1{fill:#d7deed;}.cls-2{fill:#bec3c7;}.cls-3{fill:#fff;}.cls-4{fill:#40b3e2;}.cls-5{fill:#fcd884;}.cls-6{fill:#ef727a;}</style></defs><title>Asset 9</title><g id="Layer_2" data-name="Layer 2"><g id="_44" data-name="44"><path class="cls-1" d="M71.5,54.88a1.66,1.66,0,1,1-1.66,1.66A1.66,1.66,0,0,1,71.5,54.88Z"/><path class="cls-1" d="M69.84,63.19a3.33,3.33,0,1,1-3.32,3.33A3.33,3.33,0,0,1,69.84,63.19Z"/><path class="cls-2" d="M68.18,10v6.65h-10V10a5,5,0,1,1,10,0Z"/><path class="cls-3" d="M58.2,5H18.46a6.82,6.82,0,0,0-6.82,6.82V63.19h29.1c0,5.37,3.75,8.17,7.82,8.57h1.75a8.27,8.27,0,0,0,7.89-8.52V10a5,5,0,0,1,5-5Z"/><path class="cls-2" d="M48.56,71.76H12.11c-4.39,0-8.07-3-8.07-8.57h36.7C40.74,68.56,44.49,71.36,48.56,71.76Z"/><path class="cls-2" d="M33.26,48.23a1.66,1.66,0,1,1-1.66,1.66A1.66,1.66,0,0,1,33.26,48.23Z"/><path class="cls-1" d="M10,0A1.67,1.67,0,1,1,8.31,1.66,1.66,1.66,0,0,1,10,0Z"/><path class="cls-1" d="M5,44.9a1.67,1.67,0,1,1-1.66,1.66A1.66,1.66,0,0,1,5,44.9Z"/><path class="cls-1" d="M3.33,10A3.33,3.33,0,1,1,0,13.3,3.32,3.32,0,0,1,3.33,10Z"/><path class="cls-4" d="M31.6,22.45H20a.83.83,0,1,1,0-1.66H31.6a.83.83,0,1,1,0,1.66Z"/><path class="cls-2" d="M44.9,30.76H20a.83.83,0,1,1,0-1.66H44.9a.83.83,0,0,1,0,1.66Z"/><path class="cls-2" d="M44.9,35.75H20a.83.83,0,1,1,0-1.66H44.9a.83.83,0,0,1,0,1.66Z"/><path class="cls-2" d="M44.9,40.74H20a.83.83,0,1,1,0-1.66H44.9a.83.83,0,0,1,0,1.66Z"/><path class="cls-2" d="M44.9,45.73H20a.83.83,0,1,1,0-1.66H44.9a.83.83,0,0,1,0,1.66Z"/><path class="cls-4" d="M28.27,50.72H20a.83.83,0,1,1,0-1.66h8.31a.83.83,0,1,1,0,1.66Z"/><path class="cls-4" d="M44.9,57.37H38.25a.83.83,0,0,1,0-1.66H44.9a.83.83,0,0,1,0,1.66Z"/><path class="cls-5" d="M58.42,25.94H58.2a8.07,8.07,0,1,0,.22,0Z"/><path class="cls-6" d="M55.1,41.88v9l3.1-3.11.22-.22,3.33,3.33v-9A8.36,8.36,0,0,1,55.1,41.88Z"/></g></g></svg>