<svg xmlns="http://www.w3.org/2000/svg" viewBox="0 0 73.17 76.16"><defs><style>.cls-1{fill:#2b2b2b;}.cls-2{fill:#d7deed;}.cls-3{fill:#afb9d2;}.cls-4{fill:#3c3b3d;}.cls-5{fill:#232323;}</style></defs><title>tool-1</title><g id="Layer_2" data-name="Layer 2"><g id="_44" data-name="44"><path class="cls-1" d="M28.27,3.33V6.65H21.62V3.33a3.33,3.33,0,1,1,6.65,0Z"/><path class="cls-2" d="M2.49,52.88A2.5,2.5,0,1,1,0,55.37,2.5,2.5,0,0,1,2.49,52.88Z"/><path class="cls-2" d="M69.84,49.55a3.33,3.33,0,1,1-3.32,3.33A3.33,3.33,0,0,1,69.84,49.55Z"/><path class="cls-2" d="M56.54,4.66A3.33,3.33,0,1,1,53.21,8,3.32,3.32,0,0,1,56.54,4.66Z"/><rect class="cls-1" x="21.62" y="31.26" width="6.65" height="9.98"/><path class="cls-3" d="M51.55,39.58h10A28.27,28.27,0,0,1,33.26,67.85v-10A18.29,18.29,0,0,0,51.55,39.58Z"/><path class="cls-2" d="M61.53,39.58h-10A18.29,18.29,0,0,0,33.26,21.29v-10A28.27,28.27,0,0,1,61.53,39.58Z"/><polygon class="cls-4" points="18.29 49.55 18.29 71.17 24.94 71.17 33.26 71.17 33.26 67.85 33.26 57.87 33.26 49.55 18.29 49.55"/><polygon class="cls-4" points="28.27 6.32 21.62 6.32 16.63 6.32 16.63 31.26 21.62 31.26 28.27 31.26 33.26 31.26 33.26 21.29 33.26 11.31 33.26 6.32 28.27 6.32"/><path class="cls-3" d="M66.52,64.52a1.67,1.67,0,0,1,0,3.33,1.67,1.67,0,1,1,0-3.33Z"/><path class="cls-3" d="M61.53,14.63a1.67,1.67,0,1,1-1.66,1.67A1.66,1.66,0,0,1,61.53,14.63Z"/><path class="cls-1" d="M24.94,56.21a1.66,1.66,0,1,1-1.66,1.66A1.66,1.66,0,0,1,24.94,56.21Z"/><path class="cls-1" d="M23.28,24.61a1.67,1.67,0,1,1-1.66,1.66A1.66,1.66,0,0,1,23.28,24.61Z"/><path class="cls-3" d="M6.65,11.31A1.66,1.66,0,1,1,5,13,1.66,1.66,0,0,1,6.65,11.31Z"/><path class="cls-3" d="M3.33,37.91a1.67,1.67,0,1,1-1.67,1.67A1.67,1.67,0,0,1,3.33,37.91Z"/><path class="cls-1" d="M37.47,48.72H12.53a.83.83,0,0,0,0,1.66H37.47a.83.83,0,0,0,0-1.66Z"/><path class="cls-1" d="M23.28,22.12a.83.83,0,0,1-.83-.83V13a.83.83,0,1,1,1.66,0v8.32A.83.83,0,0,1,23.28,22.12Z"/><path class="cls-1" d="M24.94,72a.83.83,0,0,1-.83-.83V62.86a.83.83,0,0,1,.83-.83.84.84,0,0,1,.84.83v8.31A.84.84,0,0,1,24.94,72Z"/><path class="cls-5" d="M59,71.17a2.5,2.5,0,1,1,0,5H9.15a2.5,2.5,0,1,1,0-5H59Z"/></g></g></svg>