<svg xmlns="http://www.w3.org/2000/svg" viewBox="0 0 76.49 76.5"><defs><style>.cls-1{fill:#313a52;}.cls-2{fill:#57606f;}.cls-3{fill:#d7deed;}.cls-4{fill:#2f4a5f;}.cls-5{fill:#232b3f;}.cls-6{fill:#ea7e23;}.cls-7{fill:#414a56;}.cls-8{fill:#fcd884;}.cls-9{fill:#afb9d2;}.cls-10{fill:#e64c42;}</style></defs><title>Asset 8</title><g id="Layer_2" data-name="Layer 2"><g id="_44" data-name="44"><rect class="cls-1" x="48.22" y="8.32" width="19.95" height="49.89"/><rect class="cls-2" x="28.27" y="8.32" width="19.96" height="49.89"/><rect class="cls-3" x="8.32" y="8.32" width="19.95" height="49.89"/><path class="cls-4" d="M74,71.51A2.49,2.49,0,0,1,76.49,74a2.52,2.52,0,0,1-.73,1.77A2.48,2.48,0,0,1,74,76.5H2.5a2.5,2.5,0,1,1,0-5Z"/><path class="cls-5" d="M58.2,44.9a3.33,3.33,0,1,1-3.32,3.33A3.33,3.33,0,0,1,58.2,44.9Z"/><path class="cls-5" d="M68.18,4.27V8.32h-20V4.27A4.27,4.27,0,0,1,52.49,0H63.91A4.27,4.27,0,0,1,68.18,4.27Z"/><path class="cls-5" d="M68.18,58.2v4a4.27,4.27,0,0,1-4.27,4.27H52.49a4.27,4.27,0,0,1-4.27-4.27v-4Z"/><rect class="cls-6" x="53.21" y="13.3" width="9.98" height="24.94"/><path class="cls-7" d="M38.25,44.9a3.33,3.33,0,1,1-3.33,3.33A3.32,3.32,0,0,1,38.25,44.9Z"/><path class="cls-7" d="M48.22,4.27V8.32H28.27V4.27A4.27,4.27,0,0,1,32.54,0H44A4.27,4.27,0,0,1,48.22,4.27Z"/><path class="cls-7" d="M48.22,58.2v4A4.27,4.27,0,0,1,44,66.52H32.54a4.27,4.27,0,0,1-4.27-4.27v-4Z"/><rect class="cls-8" x="33.26" y="13.3" width="9.98" height="24.94"/><path class="cls-9" d="M28.27,4.27V8.32H8.32V4.27A4.27,4.27,0,0,1,12.58,0H24A4.27,4.27,0,0,1,28.27,4.27Z"/><path class="cls-9" d="M28.27,58.2v4A4.27,4.27,0,0,1,24,66.52H12.58a4.27,4.27,0,0,1-4.26-4.27v-4Z"/><path class="cls-9" d="M18.29,44.9A3.33,3.33,0,1,1,15,48.23,3.33,3.33,0,0,1,18.29,44.9Z"/><rect class="cls-10" x="13.3" y="13.3" width="9.98" height="24.94"/><path class="cls-3" d="M76,13.79a1.66,1.66,0,1,1-2.35,0A1.66,1.66,0,0,1,76,13.79Z"/><path class="cls-3" d="M4.5,18.78a1.66,1.66,0,1,1-2.35,0A1.66,1.66,0,0,1,4.5,18.78Z"/><path class="cls-3" d="M2.84,47.05a1.66,1.66,0,1,1-2.35,0A1.66,1.66,0,0,1,2.84,47.05Z"/></g></g></svg>