<svg xmlns="http://www.w3.org/2000/svg" viewBox="0 0 67.02 73.17"><defs><style>.cls-1{fill:#febe76;}.cls-2{fill:#f2deb9;}.cls-3{fill:#fcd884;}.cls-4{fill:#e64c42;}.cls-5{fill:#313a52;}.cls-6{fill:#232b3f;}.cls-7{fill:#d7deed;}.cls-8{fill:#afb9d2;}.cls-9{fill:#e8a664;}</style></defs><title>Asset 11</title><g id="Layer_2" data-name="Layer 2"><g id="_44" data-name="44"><path class="cls-1" d="M54.09,2.82,67,15.75,44.68,38.09,31.75,25.16Z"/><path class="cls-1" d="M22.34,34.57,35.28,47.5,12.93,69.84,0,56.91Z"/><polygon class="cls-2" points="57.41 50.83 60.94 63.76 48.01 60.23 50.36 53.18 57.41 50.83"/><polygon class="cls-3" points="18.61 12.02 22.14 15.55 17.44 20.25 12.73 24.96 12.73 24.96 9.21 21.43 18.61 12.02"/><path class="cls-4" d="M18.61,12l-9.4,9.41L8,20.25a6.65,6.65,0,0,1,9.41-9.4Z"/><polygon class="cls-5" points="50.36 53.18 48.01 60.23 35.28 47.5 22.34 34.57 12.73 24.96 17.44 20.25 50.36 53.18"/><polygon class="cls-6" points="44.68 38.09 57.41 50.83 50.36 53.18 17.44 20.25 22.14 15.55 31.75 25.16 44.68 38.09"/><path class="cls-7" d="M62.87,31.59a4.16,4.16,0,1,1-4.16,4.16A4.16,4.16,0,0,1,62.87,31.59Z"/><path class="cls-7" d="M35.43,63.19a3.33,3.33,0,1,1-3.33,3.33A3.33,3.33,0,0,1,35.43,63.19Z"/><path class="cls-7" d="M6.33,29.93a2.5,2.5,0,1,1-2.5,2.5A2.5,2.5,0,0,1,6.33,29.93Z"/><path class="cls-7" d="M23.79,0a3.33,3.33,0,1,1-3.33,3.33A3.32,3.32,0,0,1,23.79,0Z"/><path class="cls-8" d="M65.36,46.56a1.67,1.67,0,1,1-1.66,1.66A1.66,1.66,0,0,1,65.36,46.56Z"/><path class="cls-8" d="M48.73,69.84a1.67,1.67,0,1,1-1.66,1.66A1.67,1.67,0,0,1,48.73,69.84Z"/><path class="cls-8" d="M33.77,5A1.66,1.66,0,1,1,32.1,6.65,1.66,1.66,0,0,1,33.77,5Z"/><path class="cls-8" d="M3.83,39.91a1.67,1.67,0,1,1-1.66,1.66A1.66,1.66,0,0,1,3.83,39.91Z"/><path class="cls-9" d="M54.09,13.06a.84.84,0,0,0,.59-1.42L50,6.93l-.58.59-.59.59,4.7,4.7A.81.81,0,0,0,54.09,13.06Z"/><path class="cls-9" d="M51.15,17.52a.82.82,0,0,0,.59.24.86.86,0,0,0,.59-.24.85.85,0,0,0,0-1.18l-5.88-5.88h0l-.59.59-.59.59h0Z"/><path class="cls-9" d="M46.45,19.87a.83.83,0,0,0,1.17-1.18L42.92,14l-.59.59-.59.59h0Z"/><path class="cls-9" d="M44.68,24.82a.83.83,0,0,0,.59-.25.82.82,0,0,0,0-1.17l-5.88-5.88h0l-.59.58-.59.59,5.88,5.88A.87.87,0,0,0,44.68,24.82Z"/><path class="cls-9" d="M39.39,26.92a.81.81,0,0,0,.59.25.84.84,0,0,0,.59-1.42L35.86,21h0l-.58.59-.59.59h0Z"/><path class="cls-9" d="M22.93,43.39a.84.84,0,0,0,.59.24.86.86,0,0,0,.59-.24.85.85,0,0,0,0-1.18l-4.71-4.7h0l-.58.59-.59.58h0Z"/><path class="cls-9" d="M20.58,48.09a.83.83,0,1,0,1.17-1.18L15.88,41l-.59.58-.59.59h0Z"/><path class="cls-9" d="M16.46,50.68a.83.83,0,0,0,.59-1.42l-4.7-4.7-.59.59-.59.59,4.7,4.7A.86.86,0,0,0,16.46,50.68Z"/><path class="cls-9" d="M13.52,55.14a.82.82,0,0,0,1.18,0,.83.83,0,0,0,0-1.17L8.83,48.1h0l-.59.59-.59.59h0Z"/><path class="cls-9" d="M8.82,57.5A.83.83,0,0,0,10,56.32L5.32,51.64l0,0-.59.59-.58.58h0Z"/></g></g></svg>