<svg xmlns="http://www.w3.org/2000/svg" viewBox="0 0 73.17 75.64"><defs><style>.cls-1{fill:#d7deed;}.cls-2{fill:#2b2b2b;}.cls-3{fill:#3c3b3d;}.cls-4{fill:#262626;}.cls-5{fill:#57606f;}.cls-6{fill:#bec3c7;}.cls-7{fill:#ecf0f1;}.cls-8{fill:#fcd884;}.cls-9{fill:#80af52;}.cls-10{fill:#ef727a;}.cls-11{fill:#afb9d2;}.cls-12{fill:#414a56;}</style></defs><title>Asset 10</title><g id="Layer_2" data-name="Layer 2"><g id="_44" data-name="44"><path class="cls-1" d="M5.49,8.63A5.49,5.49,0,0,0,0,14.12V50.7H73.17V14.12a5.49,5.49,0,0,0-5.49-5.49Z"/><path class="cls-2" d="M33.26,74.81a.83.83,0,0,1-.83-.83V67.33a.83.83,0,1,1,1.66,0V74A.83.83,0,0,1,33.26,74.81Z"/><path class="cls-2" d="M39.91,74.81a.83.83,0,0,1-.83-.83V67.33a.83.83,0,1,1,1.66,0V74A.83.83,0,0,1,39.91,74.81Z"/><path class="cls-3" d="M44.9,74.81a.83.83,0,0,1-.83-.83V60.68a.83.83,0,0,1,1.66,0V74A.83.83,0,0,1,44.9,74.81Z"/><path class="cls-3" d="M28.27,74.81a.83.83,0,0,1-.83-.83V60.68a.83.83,0,0,1,1.66,0V74A.83.83,0,0,1,28.27,74.81Z"/><path class="cls-4" d="M49.89,74.81H23.28a.83.83,0,0,1,0-1.66H49.89a.83.83,0,0,1,0,1.66Z"/><path class="cls-5" d="M0,50.7v4.49a5.49,5.49,0,0,0,5.49,5.49H67.68a5.49,5.49,0,0,0,5.49-5.49V50.7Z"/><path class="cls-6" d="M58.2,8.63v27.1a27.47,27.47,0,0,0-21.62,0V2.48c10.81-5.58,21.62,0,21.62,0Z"/><path class="cls-7" d="M36.58,2.48V35.73a27.45,27.45,0,0,0-21.61,0V2.48S25.78-3.1,36.58,2.48Z"/><path class="cls-1" d="M63.19,65.67A3.33,3.33,0,1,1,59.87,69,3.33,3.33,0,0,1,63.19,65.67Z"/><path class="cls-1" d="M8.31,69A3.33,3.33,0,1,1,5,72.32,3.33,3.33,0,0,1,8.31,69Z"/><path class="cls-8" d="M64.85,54a1.66,1.66,0,1,1-1.66,1.66A1.66,1.66,0,0,1,64.85,54Z"/><path class="cls-9" d="M59.87,54a1.66,1.66,0,1,1-1.67,1.66A1.66,1.66,0,0,1,59.87,54Z"/><path class="cls-10" d="M54.88,54a1.66,1.66,0,1,1-1.67,1.66A1.66,1.66,0,0,1,54.88,54Z"/><path class="cls-11" d="M51.55,65.67a1.66,1.66,0,1,1-1.66,1.66A1.66,1.66,0,0,1,51.55,65.67Z"/><path class="cls-11" d="M16.63,64A1.67,1.67,0,1,1,15,65.67,1.66,1.66,0,0,1,16.63,64Z"/><path class="cls-12" d="M29.93,11.62h-.16L21.45,9.94a.83.83,0,0,1,.33-1.63L30.1,10a.83.83,0,0,1-.17,1.65Z"/><path class="cls-12" d="M29.93,16.61a.47.47,0,0,1-.16,0l-8.32-1.66a.83.83,0,1,1,.33-1.63L30.1,15a.83.83,0,0,1-.17,1.65Z"/><path class="cls-12" d="M29.93,21.6l-.16,0-8.32-1.66a.83.83,0,1,1,.33-1.63L30.1,20a.83.83,0,0,1-.17,1.65Z"/><path class="cls-12" d="M29.93,26.59l-.16,0-8.32-1.66a.83.83,0,0,1,.33-1.63l8.32,1.66a.83.83,0,0,1,.65,1A.84.84,0,0,1,29.93,26.59Z"/><path class="cls-12" d="M43.24,11.62A.83.83,0,0,1,43.07,10l8.32-1.66a.83.83,0,1,1,.32,1.63L43.4,11.61Z"/><path class="cls-12" d="M43.24,16.61A.83.83,0,0,1,43.07,15l8.32-1.66a.83.83,0,1,1,.32,1.63L43.4,16.59A.47.47,0,0,1,43.24,16.61Z"/><path class="cls-12" d="M43.24,21.6A.83.83,0,0,1,43.07,20l8.32-1.66a.83.83,0,1,1,.32,1.63L43.4,21.58Z"/><path class="cls-12" d="M43.24,26.59a.84.84,0,0,1-.82-.67.83.83,0,0,1,.65-1l8.32-1.66a.83.83,0,1,1,.32,1.63L43.4,26.57Z"/><path class="cls-11" d="M43.24,42.38a1.67,1.67,0,1,0,1.66,1.67A1.67,1.67,0,0,0,43.24,42.38Z"/><path class="cls-11" d="M38.25,42.38a1.67,1.67,0,1,0,0,3.33,1.67,1.67,0,0,0,0-3.33Z"/><path class="cls-11" d="M34.09,44.05a.83.83,0,0,0-.83-.83H0v1.66H33.26A.83.83,0,0,0,34.09,44.05Z"/></g></g></svg>