<svg xmlns="http://www.w3.org/2000/svg" viewBox="0 0 73.17 69.84"><defs><style>.cls-1{fill:#febe76;}.cls-2{fill:#3c3b3d;}.cls-3{fill:#323133;}.cls-4{fill:#d7deed;}.cls-5{fill:#ffe678;}.cls-6{fill:#e64c42;}.cls-7{fill:#afb9d2;}.cls-8{fill:#e8a664;}</style></defs><title>Asset 5</title><g id="Layer_2" data-name="Layer 2"><g id="_44" data-name="44"><path class="cls-1" d="M66.52,51.55H0V39.91H5V38.25a31.6,31.6,0,1,1,63.19,0v1.66h5V51.55Zm-10-11.64V38.25a20,20,0,1,0-39.91,0v1.66Z"/><polygon class="cls-2" points="48.23 61.53 48.23 66.52 16.63 66.52 8.31 61.53 16.63 56.54 48.23 56.54 48.23 61.53"/><path class="cls-3" d="M48.22,62.36H26.61a.83.83,0,1,1,0-1.66H48.22a.83.83,0,1,1,0,1.66Z"/><path class="cls-4" d="M68.18,0a5,5,0,1,1-5,5A5,5,0,0,1,68.18,0Z"/><path class="cls-4" d="M5,5A3.33,3.33,0,1,1,1.66,8.32,3.33,3.33,0,0,1,5,5Z"/><polygon class="cls-5" points="53.21 56.54 53.21 66.52 48.23 66.52 48.23 61.53 48.23 56.54 53.21 56.54"/><path class="cls-6" d="M58.2,56.54a5,5,0,1,1,0,10h-5v-10Z"/><path class="cls-7" d="M69.84,16.63a1.67,1.67,0,1,1-1.66,1.66A1.66,1.66,0,0,1,69.84,16.63Z"/><path class="cls-7" d="M69.84,63.19a1.67,1.67,0,1,1-1.66,1.66A1.66,1.66,0,0,1,69.84,63.19Z"/><path class="cls-7" d="M56.54,3.33A1.66,1.66,0,1,1,54.88,5,1.66,1.66,0,0,1,56.54,3.33Z"/><circle class="cls-7" cx="16.63" cy="3.33" r="1.66"/><path class="cls-7" d="M3.33,66.52a1.66,1.66,0,1,1-1.67,1.66A1.66,1.66,0,0,1,3.33,66.52Z"/><path class="cls-7" d="M1.66,20A1.66,1.66,0,1,1,0,21.62,1.66,1.66,0,0,1,1.66,20Z"/><path class="cls-8" d="M6.65,45.73a.83.83,0,0,0-.83.83v5H7.48v-5A.83.83,0,0,0,6.65,45.73Z"/><path class="cls-8" d="M13.3,47.39a.83.83,0,0,0-.83.83v3.33h1.66V48.22A.83.83,0,0,0,13.3,47.39Z"/><path class="cls-8" d="M20,45.73a.84.84,0,0,0-.84.83v5h1.67v-5A.83.83,0,0,0,20,45.73Z"/><path class="cls-8" d="M26.61,47.39a.84.84,0,0,0-.84.83v3.33h1.67V48.22A.83.83,0,0,0,26.61,47.39Z"/><path class="cls-8" d="M33.26,45.73a.83.83,0,0,0-.83.83v5h1.66v-5A.83.83,0,0,0,33.26,45.73Z"/><path class="cls-8" d="M39.91,47.39a.83.83,0,0,0-.83.83v3.33h1.66V48.22A.83.83,0,0,0,39.91,47.39Z"/><path class="cls-8" d="M46.56,45.73a.83.83,0,0,0-.83.83v5h1.66v-5A.83.83,0,0,0,46.56,45.73Z"/><path class="cls-8" d="M53.21,47.39a.83.83,0,0,0-.83.83v3.33H54V48.22A.83.83,0,0,0,53.21,47.39Z"/><path class="cls-8" d="M59.87,45.73a.84.84,0,0,0-.84.83v5H60.7v-5A.83.83,0,0,0,59.87,45.73Z"/><path class="cls-8" d="M66.52,47.39a.84.84,0,0,0-.84.83v3.33h1.67V48.22A.83.83,0,0,0,66.52,47.39Z"/></g></g></svg>