<svg xmlns="http://www.w3.org/2000/svg" viewBox="0 0 68.18 69.01"><defs><style>.cls-1{fill:#d7deed;}.cls-2{fill:#afb9d2;}.cls-3{fill:#5b5a57;}.cls-4{fill:#3c3b3d;}.cls-5{fill:#73665c;}.cls-6{fill:#747371;}.cls-7{fill:#60534a;}</style></defs><title>tool-2</title><g id="Layer_2" data-name="Layer 2"><g id="_44" data-name="44"><path class="cls-1" d="M2.49,43.24A2.5,2.5,0,1,1,0,45.73,2.49,2.49,0,0,1,2.49,43.24Z"/><path class="cls-1" d="M7.48,0A2.5,2.5,0,1,1,5,2.49,2.5,2.5,0,0,1,7.48,0Z"/><path class="cls-1" d="M61.53,6.65A3.33,3.33,0,1,1,58.2,10,3.32,3.32,0,0,1,61.53,6.65Z"/><path class="cls-2" d="M66.52,21.62a1.66,1.66,0,1,1-1.67,1.66A1.66,1.66,0,0,1,66.52,21.62Z"/><path class="cls-2" d="M61.53,44.9a1.67,1.67,0,0,1,0,3.33,1.67,1.67,0,1,1,0-3.33Z"/><path class="cls-2" d="M18.29,5a1.66,1.66,0,1,1-1.66,1.66A1.66,1.66,0,0,1,18.29,5Z"/><path class="cls-2" d="M11.64,54.88A1.66,1.66,0,1,1,10,56.54,1.66,1.66,0,0,1,11.64,54.88Z"/><path class="cls-2" d="M6.65,13.3A1.67,1.67,0,1,1,5,15,1.66,1.66,0,0,1,6.65,13.3Z"/><path class="cls-3" d="M45.24,69a.83.83,0,0,1-.81-.66l-2-9.75a.83.83,0,1,1,1.63-.33l2,9.75a.83.83,0,0,1-.65,1Z"/><path class="cls-3" d="M24.7,69a.5.5,0,0,1-.17,0,.83.83,0,0,1-.65-1l2-9.74a.83.83,0,1,1,1.63.33l-2,9.75A.83.83,0,0,1,24.7,69Z"/><path class="cls-4" d="M64.85,69H5a.83.83,0,0,1,0-1.66H64.85a.83.83,0,1,1,0,1.66Z"/><path class="cls-5" d="M38.25,10.21a10,10,0,1,0-5,19.24,10.54,10.54,0,0,0,1.7.14,9.8,9.8,0,0,0,1.8-.16,10,10,0,0,0,1.53-19.22Z"/><path class="cls-6" d="M47.71,43.25,43.84,24.09a10,10,0,0,1-7.12,5.34c.09.47,5.68,28.86,6,30.67a16.13,16.13,0,0,0,5.57-12.19A22.18,22.18,0,0,0,47.71,43.25Z"/><path class="cls-6" d="M26.07,24.22c-.05.26.54-2.68-4.13,20.5A16.11,16.11,0,0,0,27.19,60.1c0-.08,5.92-30.1,6-30.65A10,10,0,0,1,26.07,24.22Z"/><path class="cls-7" d="M38.25,6.31v3.9a10,10,0,0,0-6.65,0V6.31a3.33,3.33,0,0,1,6.65,0Z"/><path class="cls-7" d="M34.92,16.29a3.33,3.33,0,1,1-3.32,3.33A3.33,3.33,0,0,1,34.92,16.29Z"/><path class="cls-4" d="M34.92,48.72A20.81,20.81,0,0,1,21.69,44a20.73,20.73,0,0,1-7.56-16A.84.84,0,0,1,15,27.1a.83.83,0,0,1,.83.83,19.07,19.07,0,0,0,7,14.75,18.79,18.79,0,0,0,7.19,3.72,19.39,19.39,0,0,0,5,.65A19.18,19.18,0,0,0,40,46.38,19.17,19.17,0,0,0,54,27.93a.84.84,0,0,1,.84-.83.83.83,0,0,1,.83.83A20.78,20.78,0,0,1,34.92,48.72Z"/></g></g></svg>